<svg xmlns="http://www.w3.org/2000/svg" width="139.741" height="146.057" viewBox="0 0 139.741 146.057">
  <g id="Grupo_1075645" data-name="Grupo 1075645" transform="translate(-238.263 -1326.86)">
    <g id="Grupo_1075644" data-name="Grupo 1075644" transform="translate(238.263 1326.86)">
      <path id="Trazado_819679" data-name="Trazado 819679" d="M121.074,27.093H35.116a5.707,5.707,0,0,0-5.7,5.7V139.03a5.7,5.7,0,0,0,5.7,5.691h85.958a5.7,5.7,0,0,0,5.7-5.691V32.79a5.706,5.706,0,0,0-5.7-5.7" transform="translate(-11.861 -8.586)" fill="#fff"/>
      <path id="Trazado_819680" data-name="Trazado 819680" d="M125.627,21.719H39.671A15.647,15.647,0,0,0,24.03,37.334V143.576a15.646,15.646,0,0,0,15.641,15.613h85.957a15.642,15.642,0,0,0,15.637-15.613V37.334a15.644,15.644,0,0,0-15.637-15.615m5.7,121.857a5.7,5.7,0,0,1-5.7,5.691H39.671a5.7,5.7,0,0,1-5.706-5.691V37.334a5.706,5.706,0,0,1,5.706-5.695h85.957a5.7,5.7,0,0,1,5.7,5.695Z" transform="translate(-16.414 -13.132)" fill="#bdbf84"/>
      <path id="Trazado_819681" data-name="Trazado 819681" d="M29.412,37.5a5.961,5.961,0,1,0,5.964-5.953A5.958,5.958,0,0,0,29.412,37.5" transform="translate(-11.861 -4.817)" fill="#0b3b59"/>
      <path id="Trazado_819682" data-name="Trazado 819682" d="M46.067,36.432a3.621,3.621,0,0,1-3.625,3.618H23.528a3.619,3.619,0,1,1,0-7.238H42.441a3.622,3.622,0,0,1,3.625,3.62" transform="translate(-19.904 -3.748)" fill="#a3a3a3"/>
      <path id="Trazado_819683" data-name="Trazado 819683" d="M29.412,47.173a5.961,5.961,0,1,0,5.964-5.951,5.957,5.957,0,0,0-5.964,5.951" transform="translate(-11.861 3.367)" fill="#0b3b59"/>
      <path id="Trazado_819684" data-name="Trazado 819684" d="M46.067,46.1a3.621,3.621,0,0,1-3.625,3.62H23.528a3.62,3.62,0,1,1,0-7.24H42.441a3.621,3.621,0,0,1,3.625,3.62" transform="translate(-19.904 4.435)" fill="#a3a3a3"/>
      <path id="Trazado_819685" data-name="Trazado 819685" d="M29.412,56.846A5.961,5.961,0,1,0,35.376,50.9a5.958,5.958,0,0,0-5.964,5.951" transform="translate(-11.861 11.55)" fill="#0b3b59"/>
      <path id="Trazado_819686" data-name="Trazado 819686" d="M46.067,55.778a3.622,3.622,0,0,1-3.625,3.62H23.528a3.62,3.62,0,1,1,0-7.24H42.441a3.622,3.622,0,0,1,3.625,3.62" transform="translate(-19.904 12.618)" fill="#a3a3a3"/>
      <path id="Trazado_819687" data-name="Trazado 819687" d="M29.412,66.518a5.961,5.961,0,1,0,5.964-5.951,5.958,5.958,0,0,0-5.964,5.951" transform="translate(-11.861 19.732)" fill="#0b3b59"/>
      <path id="Trazado_819688" data-name="Trazado 819688" d="M46.067,65.45a3.621,3.621,0,0,1-3.625,3.62H23.528a3.62,3.62,0,1,1,0-7.24H42.441a3.621,3.621,0,0,1,3.625,3.62" transform="translate(-19.904 20.8)" fill="#a3a3a3"/>
      <path id="Trazado_819689" data-name="Trazado 819689" d="M29.412,76.192a5.961,5.961,0,1,0,5.964-5.953,5.959,5.959,0,0,0-5.964,5.953" transform="translate(-11.861 27.914)" fill="#0b3b59"/>
      <path id="Trazado_819690" data-name="Trazado 819690" d="M46.067,75.122a3.622,3.622,0,0,1-3.625,3.62H23.528a3.619,3.619,0,1,1,0-7.238H42.441a3.621,3.621,0,0,1,3.625,3.618" transform="translate(-19.904 28.984)" fill="#a3a3a3"/>
      <path id="Trazado_819691" data-name="Trazado 819691" d="M29.412,85.865a5.961,5.961,0,1,0,5.964-5.953,5.957,5.957,0,0,0-5.964,5.953" transform="translate(-11.861 36.097)" fill="#0b3b59"/>
      <path id="Trazado_819692" data-name="Trazado 819692" d="M46.067,84.8a3.621,3.621,0,0,1-3.625,3.62H23.528a3.62,3.62,0,1,1,0-7.24H42.441a3.622,3.622,0,0,1,3.625,3.62" transform="translate(-19.904 37.166)" fill="#a3a3a3"/>
      <rect id="Rectángulo_377881" data-name="Rectángulo 377881" width="24.422" height="18.507" transform="translate(29.474 0)" fill="#0b4b59"/>
      <rect id="Rectángulo_377882" data-name="Rectángulo 377882" width="24.422" height="13.464" transform="translate(41.689 5.043)" fill="#8da68a"/>
      <rect id="Rectángulo_377883" data-name="Rectángulo 377883" width="69.522" height="7.238" transform="translate(35.872 29.064)" fill="#e0e0e0"/>
      <rect id="Rectángulo_377884" data-name="Rectángulo 377884" width="69.522" height="7.24" transform="translate(35.872 46.92)" fill="#e0e0e0"/>
      <rect id="Rectángulo_377885" data-name="Rectángulo 377885" width="69.522" height="7.24" transform="translate(35.872 64.776)" fill="#e0e0e0"/>
      <rect id="Rectángulo_377886" data-name="Rectángulo 377886" width="69.522" height="7.24" transform="translate(35.872 82.632)" fill="#e0e0e0"/>
      <rect id="Rectángulo_377887" data-name="Rectángulo 377887" width="69.522" height="7.238" transform="translate(35.872 100.49)" fill="#e0e0e0"/>
      <rect id="Rectángulo_377888" data-name="Rectángulo 377888" width="69.522" height="7.24" transform="translate(35.872 118.342)" fill="#e0e0e0"/>
      <path id="Trazado_819693" data-name="Trazado 819693" d="M45.871,55.78l54.852,54.762,5.687-5.68L51.562,50.1Z" transform="translate(2.062 10.878)" fill="#d9d0a7"/>
      <path id="Trazado_819694" data-name="Trazado 819694" d="M52.579,49.083l54.851,54.764,5.689-5.68L58.268,43.4Z" transform="translate(7.737 5.212)" fill="#8da68a"/>
      <path id="Trazado_819695" data-name="Trazado 819695" d="M48.954,53.164,103.8,107.926l6.693-6.682L55.645,46.48Z" transform="translate(4.67 7.815)" fill="#bdbf84"/>
      <path id="Trazado_819696" data-name="Trazado 819696" d="M40.906,38.446,43.888,47.3l5.885-5.874Z" transform="translate(-2.137 1.019)" fill="#0b3b59"/>
      <path id="Trazado_819697" data-name="Trazado 819697" d="M47.057,40.059,44.117,43,56.392,55.255l9.034-9.023Z" transform="translate(0.579 2.383)" fill="#a3a3a3"/>
      <path id="Trazado_819698" data-name="Trazado 819698" d="M42.521,44.587,48.7,62.93l9.038-9.021L45.466,41.65Z" transform="translate(-0.771 3.729)" fill="#e0e0e0"/>
      <path id="Trazado_819699" data-name="Trazado 819699" d="M75.586,86.978,86.118,97.5l9.036-9.023L84.62,77.957Z" transform="translate(27.2 34.443)" fill="#e0e0e0"/>
      <path id="Trazado_819700" data-name="Trazado 819700" d="M89.517,73.07l-9.038,9.021L91.014,92.608l9.036-9.021Z" transform="translate(31.339 30.309)" fill="#a3a3a3"/>
      <path id="Trazado_819701" data-name="Trazado 819701" d="M86.186,87.788l12.925,12.9c4.988-4.982,6.3-11.748,1.311-16.73l-5.2-5.195Z" transform="translate(36.167 35.128)" fill="#0b3b59"/>
      <path id="Trazado_819702" data-name="Trazado 819702" d="M81.291,92.678l5.2,5.193c4.993,4.982,11.768,3.672,16.761-1.312l-12.925-12.9Z" transform="translate(32.026 39.263)" fill="#3c627a"/>
    </g>
  </g>
</svg>
