<svg xmlns="http://www.w3.org/2000/svg" xmlns:xlink="http://www.w3.org/1999/xlink" width="179.306" height="179.306" viewBox="0 0 179.306 179.306">
  <defs>
    <filter id="Trazado_817350" x="0" y="0" width="179.306" height="179.306" filterUnits="userSpaceOnUse">
      <feOffset dy="3" input="SourceAlpha"/>
      <feGaussianBlur stdDeviation="3" result="blur"/>
      <feFlood flood-opacity="0.161"/>
      <feComposite operator="in" in2="blur"/>
      <feComposite in="SourceGraphic"/>
    </filter>
  </defs>
  <g id="Grupo_1075633" data-name="Grupo 1075633" transform="translate(-1130 -748)">
    <g id="Grupo_1075631" data-name="Grupo 1075631" transform="translate(418.63)">
      <g transform="matrix(1, 0, 0, 1, 711.37, 748)" filter="url(#Trazado_817350)">
        <path id="Trazado_817350-2" data-name="Trazado 817350" d="M699.926,95.319a80.653,80.653,0,1,1-80.653-80.653,80.654,80.654,0,0,1,80.653,80.653" transform="translate(-529.62 -8.67)" fill="#fffad0"/>
      </g>
      <g id="Grupo_1075632" data-name="Grupo 1075632" transform="translate(-428.981 -5.452)">
        <path id="Trazado_817370" data-name="Trazado 817370" d="M1031.373,152.057a5.783,5.783,0,0,1-4.157-1.423,5.531,5.531,0,0,1-1.669-3.823c-.174-2.439-.392-4.873-.6-7.31-.025-.293-.011-.677-.184-.854-1.471-1.519-1.461-3.486-1.663-5.377q-.974-9.087-1.9-18.178a1.608,1.608,0,0,0-1.164-1.608,4.614,4.614,0,0,1-3.062-4.231q-.946-13.737-1.833-27.478c-.234-3.529-.481-7.056-.689-10.587-.04-.674-.2-.931-.964-.972a5.01,5.01,0,0,1-4.864-5.075c-.04-1.655-.029-3.313,0-4.968a4.963,4.963,0,0,1,3.6-4.9.853.853,0,0,0,.7-1.015,16.069,16.069,0,0,1,.277-4.716,8.29,8.29,0,0,1,5.733-5.987c.26-.082.618-.053.751-.4h57.135a10.013,10.013,0,0,1,5.129,2.931,8.829,8.829,0,0,1,2.1,5.689,9.658,9.658,0,0,1,0,1.128c-.129,1.355.021,2.363,1.568,3.053a4.237,4.237,0,0,1,2.262,4.021q.062,2.594.005,5.19a5,5,0,0,1-4.878,5.05c-.8.041-.9.356-.939.994q-.808,12.666-1.647,25.327c-.28,4.238-.559,8.479-.881,12.716a4.74,4.74,0,0,1-3.157,4.289,1.453,1.453,0,0,0-1.056,1.431q-.818,7.908-1.657,15.812c-.165,1.57-.3,3.143-.495,4.709a3.926,3.926,0,0,1-.823,2.3,4.157,4.157,0,0,0-.91,2.8c-.167,2.175-.311,4.351-.505,6.522a4.959,4.959,0,0,1-3.129,4.45,1.566,1.566,0,0,0-1.016,1.164,8.458,8.458,0,0,1-11.873,5.144c-1.616-.832-1.841-1.44-1.166-3.148a2.775,2.775,0,0,1,2.954.183,4.017,4.017,0,0,0,1.287.359,4.95,4.95,0,0,0,4.957-2.187,5.093,5.093,0,0,0-.016-5.536,4.872,4.872,0,0,0-4.96-2.227,4.809,4.809,0,0,0-4.228,4.339c-.171,1.036-.362,2.015-1.551,2.364-1.726,0-3.454.023-5.179-.027a.973.973,0,0,0-1.153.843,8.452,8.452,0,0,1-11.613,5.149c-1.774-.836-2.031-1.436-1.4-3.263a3.22,3.22,0,0,1,3.065.207,4.854,4.854,0,0,0,5.644-1.209,5.068,5.068,0,0,0-4.668-8.387,5.035,5.035,0,0,0-4.09,4.5,2.366,2.366,0,0,1-1.422,2.225M1077.4,56.729c-.421,1.425-.724,1.629-2.5,1.629h-59.757c-2.824,0-3.22.4-3.127,3.189,0,.112.026.224.04.335-.015.713-.042,1.428-.043,2.143-.005,2.413.417,2.837,2.8,2.837h65.6c.6,0,1.2,0,1.806,0,1.674-.019,2.263-.586,2.28-2.224q.021-2.032,0-4.065c-.014-1.431-.444-1.9-1.895-2.121s-1.931-.771-1.939-2.255.011-2.936-.006-4.4a5.088,5.088,0,0,0-5.2-5.225c-.113-.008-.225-.023-.338-.023q-26.745,0-53.491,0a4.074,4.074,0,0,0-.564.02,4.822,4.822,0,0,0-4.37,3.354c-.58,1.169-.267,2.435-.412,3.65s.343,1.4,1.438,1.4q28.294-.048,56.589-.022c.3,0,.6-.01.9,0,1.367.056,1.843.445,2.191,1.782m-10.507,57.306c-2.278-.021-4.556-.052-6.834-.06-1.194,0-2.028-.435-2.238-1.707.418-1.415.836-1.722,2.473-1.725,4.553-.008,9.107,0,13.661-.008,1.529,0,2.113-.478,2.207-1.8.236-3.3.447-6.6.671-9.906.35-5.141.711-10.281,1.052-15.423.271-4.091.505-8.184.791-12.275.05-.7-.15-.92-.85-.892-1.389.056-2.782.035-4.174.047-.112-.01-.224-.03-.337-.03q-27.294,0-54.59-.023c-.881,0-.939.328-.89,1.052.429,6.3.811,12.6,1.235,18.9.343,5.1.725,10.194,1.09,15.29.05.9.085,1.8.151,2.7.149,2.019.524,2.358,2.586,2.359,4.439,0,8.879,0,13.318,0,1.641,0,2.052.306,2.47,1.725-.422,1.4-.809,1.694-2.364,1.7-3.606.013-7.213.032-10.818-.013-.876-.011-1.037.206-.93,1.079.4,3.2.67,6.421,1.019,9.63.255,2.347.555,4.687.835,7.031.08.936.154,1.872.239,2.807.164,1.8.624,2.233,2.4,2.235q7.4.009,14.791,0c1.818,0,2.671.545,2.688,1.7.018,1.169-.844,1.744-2.643,1.745-4.817,0-9.634.018-14.451-.017-.813-.006-1.042.238-.962,1.027.191,1.87.306,3.748.472,5.62a1.653,1.653,0,0,0,.541,1.254c.078-.061.122-.078.135-.108.116-.276.22-.557.343-.829a8.2,8.2,0,0,1,7.412-5.232c3.506-.18,6.411,1.307,7.783,4.518.863,2.018,1.954,2.483,3.815,2.211a1.515,1.515,0,0,1,.451,0c.72.109,1.018-.186,1.241-.9a8.427,8.427,0,0,1,7.878-5.868,8.532,8.532,0,0,1,8.058,5.484c.1.259.083.59.43.71a1.868,1.868,0,0,0,.5-1.233c.159-1.836.269-3.677.468-5.509.1-.886-.154-1.153-1.071-1.145-4.779.046-9.559.022-14.339.021-1.8,0-2.662-.573-2.646-1.74s.869-1.7,2.685-1.7q7.509,0,15.017,0c1.434,0,2.013-.526,2.158-1.888.71-6.692,1.4-13.386,2.139-20.075.068-.617-.062-.811-.669-.794-1.466.04-2.933.041-4.4.058" transform="translate(181.75 739.3)" fill="#040202"/>
        <path id="Trazado_817371" data-name="Trazado 817371" d="M1031.373,152.057a2.369,2.369,0,0,0,1.422-2.226,5.034,5.034,0,0,1,4.09-4.495,5.067,5.067,0,0,1,4.668,8.385,4.853,4.853,0,0,1-5.644,1.21,3.225,3.225,0,0,0-3.065-.207,4.064,4.064,0,0,1-1.471-2.667m6.415-.058a1.755,1.755,0,0,0,1.718-1.628,1.775,1.775,0,0,0-1.607-1.738,1.684,1.684,0,1,0-.111,3.366" transform="translate(181.75 739.3)" fill="#4c5865"/>
        <path id="Trazado_817372" data-name="Trazado 817372" d="M1052.187,152.024c1.189-.349,1.38-1.329,1.55-2.366a4.81,4.81,0,0,1,4.228-4.338,4.873,4.873,0,0,1,4.961,2.227,5.091,5.091,0,0,1,.016,5.535,4.945,4.945,0,0,1-4.957,2.187,3.959,3.959,0,0,1-1.287-.358,2.773,2.773,0,0,0-2.954-.183,4.657,4.657,0,0,1-1.557-2.7m8.157-1.748a1.7,1.7,0,0,0-1.667-1.644,1.686,1.686,0,0,0-.031,3.371,1.7,1.7,0,0,0,1.7-1.727" transform="translate(181.75 739.3)" fill="#4c5865"/>
        <path id="Trazado_817373" data-name="Trazado 817373" d="M1020.159,105.481c-.365-5.1-.747-10.193-1.091-15.292-.424-6.3-.806-12.6-1.234-18.9-.049-.723.009-1.053.89-1.052q27.3.041,54.59.024c.112,0,.224.019.337.03-.068,3.369-.408,6.72-.63,10.08s-.475,6.718-.679,10.078c-.286,4.707-.623,9.409-.92,14.115-.048.762-.3.944-1.005.937-2.972-.032-5.944-.017-8.917-.02-.315-1.527-.948-1.958-2.46-1.647a5.715,5.715,0,0,1-5.738-1.769c-.428-.467-.439-.722.152-1.094a9.471,9.471,0,0,0,4.593-7.494c.063-.689.345-.715.856-.58a5.611,5.611,0,0,1,3.523,2.621,6.1,6.1,0,0,1,.585,4.573,1.65,1.65,0,0,0,1.384,2.164c.973.133,1.7-.545,2-1.865a8.814,8.814,0,0,0-6.612-10.688,4.221,4.221,0,0,1-3.439-2.592,1.205,1.205,0,0,1-.05-1.233,7.98,7.98,0,0,0,.944-4.241,8.776,8.776,0,0,0-4.8-7.759,1.539,1.539,0,0,0-2.113.45,1.5,1.5,0,0,0,.041,2.064,5.434,5.434,0,0,0,1.066.823,5.685,5.685,0,0,1,2.318,5.939c-.17.753-.374,1.072-1.266.633a9.457,9.457,0,0,0-8.381-.073c-1.1.494-1.2.47-1.381-.781a5.61,5.61,0,0,1,2.714-5.971c1.144-.732,1.405-1.66.811-2.546s-1.529-.976-2.673-.255a8.723,8.723,0,0,0-3.877,10.35,3.884,3.884,0,0,1-.317,3.978c-.377.536-.643.881-1.342.934a8.979,8.979,0,0,0-7.731,11.611,1.581,1.581,0,0,0,1.909,1.191,1.628,1.628,0,0,0,1.328-1.911c-.047-.41-.131-.816-.2-1.224a5.669,5.669,0,0,1,4.255-6.2c.515-.106.794-.109.858.58a9.5,9.5,0,0,0,4.592,7.5c.588.37.583.623.153,1.092a5.705,5.705,0,0,1-5.736,1.772c-1.509-.309-2.135.116-2.465,1.647l-14.845,0" transform="translate(181.75 739.3)" fill="#fd5267"/>
        <path id="Trazado_817374" data-name="Trazado 817374" d="M1026.426,131.694c-.28-2.344-.58-4.685-.835-7.031-.349-3.209-.623-6.427-1.019-9.631-.108-.871.054-1.089.93-1.079,3.605.045,7.212.027,10.818.015,1.555-.005,1.941-.3,2.364-1.7h19.136a1.947,1.947,0,0,0,2.238,1.709c2.278.006,4.556.038,6.834.06-.162,1.635-.3,3.273-.49,4.907-.43,3.782-.979,7.555-1.267,11.348-.1,1.277-.52,1.415-1.587,1.412q-18.561-.039-37.122-.009" transform="translate(181.75 739.3)" fill="#fe5367"/>
        <path id="Trazado_817375" data-name="Trazado 817375" d="M1075.454,46.568a5.089,5.089,0,0,1,5.2,5.226c.017,1.467,0,2.936.006,4.4.008,1.484.488,2.035,1.939,2.256s1.882.691,1.895,2.12q.02,2.032,0,4.065c-.017,1.638-.606,2.206-2.279,2.224-.6.007-1.2,0-1.807,0h-65.6c-2.38,0-2.8-.424-2.8-2.838,0-.714.028-1.428.043-2.142l64.341.008c3.128,0,3.128,0,3.128-3.149,0-2.1,0-2.1-2.124-2.013-.348-1.337-.824-1.727-2.191-1.783-.3-.012-.6,0-.9,0q-28.295,0-56.589.024c-1.095,0-1.581-.2-1.438-1.4s-.168-2.48.412-3.649q20.361,0,40.719.009c5.64,0,11.28-.015,16.919.017.859.005,1.256-.189,1.158-1.122-.078-.744-.027-1.5-.033-2.254" transform="translate(181.75 739.3)" fill="#4d5967"/>
        <path id="Trazado_817376" data-name="Trazado 817376" d="M1026.426,131.694q18.561,0,37.122.009c1.067,0,1.491-.135,1.587-1.412.288-3.793.837-7.566,1.267-11.348.185-1.634.328-3.272.49-4.907,1.466-.018,2.933-.019,4.4-.06.608-.017.738.177.67.794-.734,6.69-1.429,13.383-2.14,20.075-.144,1.364-.723,1.885-2.158,1.888-5.005.011-10.01,0-15.016.006-1.816,0-2.671.546-2.686,1.7s.847,1.739,2.647,1.74c4.78,0,9.56.025,14.339-.02.917-.009,1.168.258,1.071,1.145-.2,1.831-.31,3.672-.468,5.508a1.868,1.868,0,0,1-.5,1.234c-.347-.119-.331-.45-.431-.709a8.53,8.53,0,0,0-8.057-5.485,8.428,8.428,0,0,0-7.878,5.867c-.223.719-.521,1.015-1.242.9a1.578,1.578,0,0,0-.45,0c-1.861.272-2.952-.191-3.815-2.211-1.372-3.21-4.277-4.7-7.783-4.518a8.2,8.2,0,0,0-7.413,5.232c-.123.273-.226.554-.343.829-.012.03-.056.047-.134.109a1.647,1.647,0,0,1-.541-1.253c-.166-1.873-.281-3.751-.472-5.621-.081-.79.149-1.033.962-1.027,4.817.035,9.634.019,14.451.016,1.8,0,2.661-.575,2.643-1.743s-.871-1.7-2.688-1.7q-7.4,0-14.791,0c-1.775,0-2.235-.438-2.4-2.236-.085-.935-.16-1.871-.239-2.806" transform="translate(181.75 739.3)" fill="#d7425a"/>
        <path id="Trazado_817377" data-name="Trazado 817377" d="M1057.82,112.267h-19.136c-.418-1.419-.829-1.721-2.47-1.725-4.439-.008-8.879,0-13.318,0-2.062,0-2.437-.34-2.586-2.359-.066-.9-.1-1.8-.151-2.7l14.845,0a2.016,2.016,0,0,0,1.75,1.641,9.134,9.134,0,0,0,8.012-1.824c.237.258.551.189.843.188,2.094,0,4.188-.01,6.283-.016a9.386,9.386,0,0,0,7.86,1.652,2.008,2.008,0,0,0,1.748-1.641c2.973,0,5.945-.012,8.917.019.7.008.957-.175,1.005-.937.3-4.7.634-9.408.92-14.114.2-3.36.457-6.718.679-10.078s.563-6.711.63-10.081c1.392-.011,2.785.01,4.174-.046.7-.029.9.189.85.892-.286,4.09-.52,8.183-.791,12.274-.341,5.142-.7,10.282-1.052,15.423-.224,3.3-.435,6.6-.671,9.906-.094,1.32-.678,1.795-2.207,1.8-4.554.01-9.108,0-13.661.007-1.637,0-2.055.31-2.473,1.725" transform="translate(181.75 739.3)" fill="#d7425a"/>
        <path id="Trazado_817378" data-name="Trazado 817378" d="M1077.4,56.729c2.124-.085,2.124-.085,2.124,2.013,0,3.149,0,3.149-3.128,3.149l-64.341-.009c-.014-.111-.036-.223-.04-.335-.092-2.785.3-3.189,3.128-3.189H1074.9c1.777,0,2.08-.2,2.5-1.628" transform="translate(181.75 739.3)" fill="#687683"/>
        <path id="Trazado_817379" data-name="Trazado 817379" d="M1075.454,46.568c.006.752-.045,1.51.033,2.254.1.933-.3,1.127-1.158,1.122-5.639-.032-11.279-.016-16.919-.017q-20.358,0-40.719-.009a4.827,4.827,0,0,1,4.37-3.355,4.08,4.08,0,0,1,.564-.02q26.745,0,53.491,0c.113,0,.225.014.338.022" transform="translate(181.75 739.3)" fill="#6b7987"/>
        <path id="Trazado_817380" data-name="Trazado 817380" d="M1037.788,152a1.684,1.684,0,1,1,.111-3.366,1.775,1.775,0,0,1,1.607,1.738,1.755,1.755,0,0,1-1.718,1.628" transform="translate(181.75 739.3)" fill="#030404"/>
        <path id="Trazado_817381" data-name="Trazado 817381" d="M1060.344,150.276a1.7,1.7,0,0,1-1.7,1.727,1.686,1.686,0,0,1,.031-3.371,1.7,1.7,0,0,1,1.667,1.644" transform="translate(181.75 739.3)" fill="#030404"/>
        <path id="Trazado_817382" data-name="Trazado 817382" d="M1061.5,105.479a2.009,2.009,0,0,1-1.748,1.642,9.392,9.392,0,0,1-7.861-1.652,12.1,12.1,0,0,1-1.617-1.848,2.037,2.037,0,0,0-2.129-1.163,1.727,1.727,0,0,0-1.778.969,7.447,7.447,0,0,1-1.6,1.87,9.131,9.131,0,0,1-8.012,1.823,2.015,2.015,0,0,1-1.75-1.64c.33-1.532.957-1.957,2.465-1.648a5.705,5.705,0,0,0,5.736-1.772c.43-.469.435-.722-.153-1.092a9.494,9.494,0,0,1-4.592-7.5c-.064-.689-.343-.686-.858-.58a5.669,5.669,0,0,0-4.255,6.2c.07.408.155.814.2,1.224a1.629,1.629,0,0,1-1.328,1.911,1.582,1.582,0,0,1-1.91-1.19,8.98,8.98,0,0,1,7.731-11.612c.7-.053.965-.4,1.342-.934a3.884,3.884,0,0,0,.317-3.978,8.723,8.723,0,0,1,3.877-10.35c1.144-.721,2.078-.632,2.673.255s.334,1.815-.81,2.546a5.611,5.611,0,0,0-2.715,5.971c.181,1.251.277,1.275,1.381.781a9.46,9.46,0,0,1,8.381.073c.893.439,1.1.12,1.266-.632a5.686,5.686,0,0,0-2.318-5.94,5.463,5.463,0,0,1-1.066-.823,1.5,1.5,0,0,1-.04-2.064,1.537,1.537,0,0,1,2.112-.449,8.777,8.777,0,0,1,4.8,7.759,7.987,7.987,0,0,1-.945,4.24,1.207,1.207,0,0,0,.05,1.234,4.222,4.222,0,0,0,3.439,2.591,8.814,8.814,0,0,1,6.612,10.688c-.3,1.321-1.029,2-2,1.865a1.65,1.65,0,0,1-1.384-2.164,6.1,6.1,0,0,0-.585-4.573,5.608,5.608,0,0,0-3.523-2.621c-.511-.135-.793-.109-.856.58a9.469,9.469,0,0,1-4.593,7.494c-.591.372-.58.627-.152,1.094a5.713,5.713,0,0,0,5.738,1.769c1.512-.311,2.145.121,2.46,1.647M1043.03,89.24c-.334-.061-.394.21-.484.39-.242.484.2.56.473.708a8.821,8.821,0,0,1,4.912,8.013c.006.265-.158.7.279.731.567.036.353-.471.362-.751a8.855,8.855,0,0,1,4.834-7.954c.334-.186.853-.255.5-.867-.335-.577-.635-.141-.911.017a8.873,8.873,0,0,1-9.494-.019c-.162-.094-.325-.186-.47-.268m2.49-2.44a5.921,5.921,0,0,0,5.452-.013,6.687,6.687,0,0,0-5.452.013m-.975,11.111a5.56,5.56,0,0,0-2.6-4.251,6.113,6.113,0,0,0,2.6,4.251m10.021-4.275a5.591,5.591,0,0,0-2.59,4.259,6.067,6.067,0,0,0,2.59-4.259" transform="translate(181.75 739.3)" fill="#040102"/>
        <path id="Trazado_817383" data-name="Trazado 817383" d="M1044.766,105.3a7.46,7.46,0,0,0,1.6-1.869,1.727,1.727,0,0,1,1.778-.97,2.039,2.039,0,0,1,2.129,1.163,12.05,12.05,0,0,0,1.618,1.848q-3.142.009-6.283.016c-.291,0-.606.07-.843-.188" transform="translate(181.75 739.3)" fill="#fa5166"/>
        <path id="Trazado_817384" data-name="Trazado 817384" d="M1043.03,89.24c.145.083.308.174.469.268a8.875,8.875,0,0,0,9.495.019c.275-.158.576-.594.91-.017.354.612-.164.681-.5.868a8.853,8.853,0,0,0-4.835,7.953c-.008.28.206.787-.361.751-.437-.028-.273-.465-.279-.731a8.823,8.823,0,0,0-4.912-8.013c-.271-.148-.716-.224-.473-.708.09-.18.149-.451.484-.39" transform="translate(181.75 739.3)" fill="#f65064"/>
        <path id="Trazado_817385" data-name="Trazado 817385" d="M1045.521,86.8a6.682,6.682,0,0,1,5.45-.013,5.92,5.92,0,0,1-5.45.013" transform="translate(181.75 739.3)" fill="#ef4e62"/>
        <path id="Trazado_817386" data-name="Trazado 817386" d="M1044.545,97.911a6.113,6.113,0,0,1-2.6-4.251,5.563,5.563,0,0,1,2.6,4.251" transform="translate(181.75 739.3)" fill="#ea4c5f"/>
        <path id="Trazado_817387" data-name="Trazado 817387" d="M1054.566,93.636a6.067,6.067,0,0,1-2.59,4.259,5.591,5.591,0,0,1,2.59-4.259" transform="translate(181.75 739.3)" fill="#ea4c5f"/>
      </g>
    </g>
  </g>
</svg>
