<svg xmlns="http://www.w3.org/2000/svg" xmlns:xlink="http://www.w3.org/1999/xlink" width="179.306" height="179.306" viewBox="0 0 179.306 179.306">
  <defs>
    <filter id="Trazado_817350" x="0" y="0" width="179.306" height="179.306" filterUnits="userSpaceOnUse">
      <feOffset dy="3" input="SourceAlpha"/>
      <feGaussianBlur stdDeviation="3" result="blur"/>
      <feFlood flood-opacity="0.161"/>
      <feComposite operator="in" in2="blur"/>
      <feComposite in="SourceGraphic"/>
    </filter>
  </defs>
  <g id="Grupo_1075507" data-name="Grupo 1075507" transform="translate(-711.37 -747.966)">
    <g transform="matrix(1, 0, 0, 1, 711.37, 747.97)" filter="url(#Trazado_817350)">
      <path id="Trazado_817350-2" data-name="Trazado 817350" d="M699.926,95.319a80.653,80.653,0,1,1-80.653-80.653,80.654,80.654,0,0,1,80.653,80.653" transform="translate(-529.62 -8.67)" fill="#fffad0"/>
    </g>
    <g id="Grupo_1075510" data-name="Grupo 1075510">
      <path id="Trazado_817388" data-name="Trazado 817388" d="M582.279,142.2c-.187-.35-.567-.288-.862-.375a9.091,9.091,0,0,1-3.845-15.116c.446-.449.915-.875,1.378-1.307a5.4,5.4,0,0,0,1.681-3.624q.935-10.7,1.865-21.4,1.052-11.892,2.124-23.783c.127-1.427.252-2.854.357-4.282a3.63,3.63,0,0,0-.79-2.511c-.983-1.3-1.968-2.6-2.922-3.924A5.669,5.669,0,0,1,581,59.254a5.574,5.574,0,0,1,6.278-2.1.809.809,0,0,0,1.094-.437,9.911,9.911,0,0,1,9.112-4.9,1.022,1.022,0,0,0,1.052-.638A11.683,11.683,0,0,1,609.6,45.008a1.188,1.188,0,0,0,1.178-.636,10.205,10.205,0,0,1,17.036.034,1.086,1.086,0,0,0,1.092.6,11.593,11.593,0,0,1,11.011,6.064,1.174,1.174,0,0,0,1.2.737,9.886,9.886,0,0,1,9.04,4.855.866.866,0,0,0,1.167.469,5.572,5.572,0,0,1,6.2,2.073,5.646,5.646,0,0,1-.146,6.544c-.959,1.358-1.969,2.684-2.977,4.008a3.977,3.977,0,0,0-.8,2.9q1.469,16.569,2.905,33.142c.462,5.275.947,10.548,1.387,15.824a6.05,6.05,0,0,0,2.24,4.293,9.419,9.419,0,0,1,3.426,6.223,9.012,9.012,0,0,1-7.581,9.88c-.136.018-.26.026-.306.182h-2.8c-.326-.383-.821-.35-1.242-.483a11.358,11.358,0,0,1-4.813-3.588c-.32-.348-.57-.61-1.164-.361a60,60,0,0,1-17.891,4.079,8.791,8.791,0,0,0-2.887.353h-12.8c-.057-.215-.236-.189-.4-.2a68.316,68.316,0,0,1-18.219-4.018,1.118,1.118,0,0,0-1.241.238c-2.108,1.684-4.153,3.482-6.941,3.982Zm54.977-88.784a8.113,8.113,0,0,0-6.979-4.98,7.471,7.471,0,0,0-1.185-.027,3.849,3.849,0,0,1-4-1.8,6.416,6.416,0,0,0-5.619-3.338,6.327,6.327,0,0,0-5.833,3.009,4.224,4.224,0,0,1-4.238,2.148,7.831,7.831,0,0,0-7.752,4.287,4.246,4.246,0,0,1-4.418,2.509,6.353,6.353,0,0,0-5.476,2.564c-.712.858-.693.9.393,1.232A79.816,79.816,0,0,0,611.061,61.8a152.159,152.159,0,0,0,22.053-.4,64.747,64.747,0,0,0,11.4-1.882c.768-.208,1.533-.433,2.307-.618.533-.128.537-.357.246-.75a6.528,6.528,0,0,0-5.393-2.914c-1.765.105-3.4-.117-4.418-1.817m17.016,85.352a5.609,5.609,0,0,0,5.846-6.7,6.4,6.4,0,0,0-2.368-3.7,9.509,9.509,0,0,1-3.3-7.009c-.2-3.288-.55-6.568-.842-9.852q-.859-9.7-1.728-19.4c-.514-5.769-.926-11.549-1.579-17.3-.353-3.12.028-5.878,2.22-8.258a26.838,26.838,0,0,0,1.866-2.469c.856-1.173.915-2.289.181-3.095a2.486,2.486,0,0,0-3.111-.237c-.892.362-1.768.771-2.679,1.081-6.687,2.269-13.638,2.987-20.628,3.355a144.019,144.019,0,0,1-27.923-.98c-4.55-.647-9.063-1.487-13.236-3.57a2.494,2.494,0,0,0-3.038.38,2.31,2.31,0,0,0,.185,3.019c.947,1.288,1.919,2.559,2.866,3.845a7.081,7.081,0,0,1,1.363,5.08c-.329,3.346-.6,6.7-.889,10.051q-.738,8.409-1.478,16.82c-.572,6.47-1.258,12.931-1.681,19.41-.255,3.909-1,7.457-4.362,9.936a1.121,1.121,0,0,0-.136.147,5.64,5.64,0,0,0,1.8,8.913c2.632,1.2,5.135.474,7.607-2.177-.432-.256-.867-.5-1.29-.764-1.071-.672-1.376-1.625-.818-2.517a1.719,1.719,0,0,1,2.54-.43,43.546,43.546,0,0,0,15.185,5.263,86.754,86.754,0,0,0,21.113.952,62.073,62.073,0,0,0,16.417-3.172,37.334,37.334,0,0,0,6.5-3.035,1.7,1.7,0,0,1,2.512.519,1.724,1.724,0,0,1-.825,2.437c-.226.14-.455.276-.689.4s-.375.262-.144.529c1.209,1.394,2.551,2.544,4.543,2.531" transform="translate(181.75 739.3)" fill="#030301"/>
      <path id="Trazado_817390" data-name="Trazado 817390" d="M654.272,138.768c-1.992.011-3.334-1.139-4.544-2.533-.231-.266-.092-.4.145-.527s.463-.263.689-.4a1.724,1.724,0,0,0,.825-2.436,1.7,1.7,0,0,0-2.512-.519,37.476,37.476,0,0,1-6.5,3.034,62.032,62.032,0,0,1-16.417,3.171,86.7,86.7,0,0,1-21.113-.95,43.607,43.607,0,0,1-15.185-5.263,1.719,1.719,0,0,0-2.54.429c-.559.892-.253,1.845.818,2.516.423.265.858.509,1.29.764-2.472,2.652-4.975,3.38-7.607,2.178a5.64,5.64,0,0,1-1.8-8.913,1.113,1.113,0,0,1,.136-.146c3.361-2.479,4.106-6.027,4.362-9.938.423-6.478,1.109-12.94,1.681-19.409q.742-8.409,1.478-16.82c.294-3.351.56-6.7.889-10.052A7.077,7.077,0,0,0,587,67.873c-.947-1.288-1.919-2.557-2.866-3.845a2.312,2.312,0,0,1-.185-3.02,2.491,2.491,0,0,1,3.038-.38c4.173,2.084,8.685,2.923,13.236,3.571a143.933,143.933,0,0,0,27.922.979c6.991-.367,13.942-1.085,20.629-3.355.91-.309,1.787-.718,2.679-1.081a4.8,4.8,0,0,1-.9,4.5c-1.011,1.313-2.021,2.63-2.959,4a5.025,5.025,0,0,0-.883,3.4c.258,2.665.52,5.331.757,8,.165,1.846.275,3.7.439,5.544.242,2.734.517,5.465.762,8.2.162,1.814.281,3.631.444,5.444.242,2.7.515,5.4.755,8.1.162,1.813.274,3.631.437,5.445.242,2.7.561,5.394.749,8.1a6.937,6.937,0,0,0,2.067,4.9,17.717,17.717,0,0,1,1.69,1.7,7.438,7.438,0,0,1,1.907,6.041,8.627,8.627,0,0,1-2.446,4.667M619.243,77.381a96.882,96.882,0,0,0,18.763-1.7c1.321-.257,1.905-1.043,1.676-2.129-.21-.991-1.086-1.436-2.354-1.207a100.281,100.281,0,0,1-36.147-.009c-1.245-.227-2.132.249-2.322,1.254-.2,1.071.363,1.811,1.623,2.062a95.476,95.476,0,0,0,18.761,1.731" transform="translate(181.75 739.3)" fill="#fe9701"/>
      <path id="Trazado_817391" data-name="Trazado 817391" d="M625.095,46.6a3.847,3.847,0,0,0,4,1.8,7.468,7.468,0,0,1,1.185.029,8.694,8.694,0,0,1,2.771,3.043,2.8,2.8,0,0,0,3.414,1.939,5.7,5.7,0,0,1,.795,0c1.023,1.7,2.652,1.921,4.417,1.816a10.016,10.016,0,0,1,2.84,4.283,64.822,64.822,0,0,1-11.4,1.881,152.3,152.3,0,0,1-22.053.4,79.715,79.715,0,0,1-18.908-2.783c-1.085-.325-1.1-.373-.392-1.231a6.354,6.354,0,0,1,5.476-2.565,4.24,4.24,0,0,0,4.417-2.508,7.834,7.834,0,0,1,7.753-4.287,4.224,4.224,0,0,0,4.238-2.148,6.327,6.327,0,0,1,5.833-3.009,14.92,14.92,0,0,1,2.216,2.758,1.5,1.5,0,0,0,1.535.672c.628-.089,1.247-.035,1.867-.092m-5.706,5.175a5.883,5.883,0,0,0-4.645,2.092,1.689,1.689,0,0,0-.054,2.492,1.729,1.729,0,0,0,2.552-.208,2.571,2.571,0,0,1,4.08.032,1.706,1.706,0,1,0,2.522-2.272,5.773,5.773,0,0,0-4.455-2.136m-10.456,0a5.119,5.119,0,0,0-4.379,2.96,1.742,1.742,0,0,0,.7,2.169,1.591,1.591,0,0,0,2.2-.47A2.68,2.68,0,0,1,609.4,55.1a1.6,1.6,0,0,0,1.3-1.929,1.625,1.625,0,0,0-1.766-1.39m21.088.019c-1.306-.052-2.021.458-2.168,1.344a1.621,1.621,0,0,0,1.362,1.979,2.5,2.5,0,0,1,1.817,1.216,1.634,1.634,0,0,0,2.267.533,1.679,1.679,0,0,0,.618-2.26,4.9,4.9,0,0,0-3.9-2.812" transform="translate(181.75 739.3)" fill="#fcd900"/>
      <path id="Trazado_817392" data-name="Trazado 817392" d="M654.272,138.767a8.624,8.624,0,0,0,2.446-4.667,7.437,7.437,0,0,0-1.906-6.039,17.618,17.618,0,0,0-1.691-1.7,6.943,6.943,0,0,1-2.067-4.9c-.188-2.7-.507-5.4-.749-8.1-.163-1.812-.275-3.63-.437-5.445-.24-2.7-.513-5.4-.755-8.1-.163-1.813-.282-3.631-.444-5.444-.244-2.734-.52-5.463-.762-8.2-.164-1.846-.274-3.7-.439-5.545-.237-2.667-.5-5.332-.757-8a5.023,5.023,0,0,1,.883-3.4c.938-1.365,1.948-2.682,2.959-4a4.8,4.8,0,0,0,.9-4.495,2.486,2.486,0,0,1,3.111.237c.734.806.675,1.922-.181,3.095a26.838,26.838,0,0,1-1.866,2.469c-2.192,2.38-2.573,5.138-2.22,8.258.653,5.754,1.065,11.534,1.579,17.3q.863,9.7,1.728,19.4c.292,3.284.642,6.564.842,9.852a9.509,9.509,0,0,0,3.3,7.009,6.4,6.4,0,0,1,2.368,3.7,5.609,5.609,0,0,1-5.846,6.7" transform="translate(181.75 739.3)" fill="#f27b00"/>
      <path id="Trazado_817393" data-name="Trazado 817393" d="M637.256,53.416a5.549,5.549,0,0,0-.795,0,2.8,2.8,0,0,1-3.413-1.94,8.706,8.706,0,0,0-2.772-3.043,8.114,8.114,0,0,1,6.98,4.98" transform="translate(181.75 739.3)" fill="#f9bd08"/>
      <path id="Trazado_817394" data-name="Trazado 817394" d="M644.513,59.515a10.025,10.025,0,0,0-2.84-4.283,6.532,6.532,0,0,1,5.393,2.914c.292.393.288.623-.246.75-.774.185-1.539.411-2.307.619" transform="translate(181.75 739.3)" fill="#f7bc08"/>
      <path id="Trazado_817395" data-name="Trazado 817395" d="M625.095,46.6c-.62.057-1.239,0-1.867.092a1.5,1.5,0,0,1-1.535-.672,14.92,14.92,0,0,0-2.216-2.758,6.413,6.413,0,0,1,5.618,3.338" transform="translate(181.75 739.3)" fill="#f7bd08"/>
      <path id="Trazado_817396" data-name="Trazado 817396" d="M619.242,77.381a95.466,95.466,0,0,1-18.76-1.731c-1.26-.251-1.825-.992-1.623-2.063.189-1,1.076-1.481,2.321-1.254a100.259,100.259,0,0,0,36.147.01c1.268-.23,2.145.215,2.354,1.207.229,1.085-.354,1.871-1.675,2.129a97.056,97.056,0,0,1-18.764,1.7" transform="translate(181.75 739.3)" fill="#040200"/>
      <path id="Trazado_817397" data-name="Trazado 817397" d="M619.389,51.78a5.773,5.773,0,0,1,4.455,2.136,1.706,1.706,0,1,1-2.522,2.272,2.571,2.571,0,0,0-4.08-.032,1.729,1.729,0,0,1-2.552.208,1.689,1.689,0,0,1,.054-2.492,5.879,5.879,0,0,1,4.645-2.092" transform="translate(181.75 739.3)" fill="#030300"/>
      <path id="Trazado_817398" data-name="Trazado 817398" d="M608.933,51.783a1.624,1.624,0,0,1,1.766,1.39A1.6,1.6,0,0,1,609.4,55.1a2.681,2.681,0,0,0-1.953,1.34,1.593,1.593,0,0,1-2.2.47,1.744,1.744,0,0,1-.7-2.169,5.12,5.12,0,0,1,4.379-2.96" transform="translate(181.75 739.3)" fill="#050400"/>
      <path id="Trazado_817399" data-name="Trazado 817399" d="M630.021,51.8a4.9,4.9,0,0,1,3.9,2.812,1.679,1.679,0,0,1-.618,2.26,1.634,1.634,0,0,1-2.267-.533,2.5,2.5,0,0,0-1.817-1.216,1.621,1.621,0,0,1-1.362-1.979c.147-.886.862-1.4,2.168-1.344" transform="translate(181.75 739.3)" fill="#050400"/>
    </g>
  </g>
</svg>
