<svg xmlns="http://www.w3.org/2000/svg" xmlns:xlink="http://www.w3.org/1999/xlink" width="179.306" height="179.306" viewBox="0 0 179.306 179.306">
  <defs>
    <filter id="Trazado_817349" x="0" y="0" width="179.306" height="179.306" filterUnits="userSpaceOnUse">
      <feOffset dy="3" input="SourceAlpha"/>
      <feGaussianBlur stdDeviation="3" result="blur"/>
      <feFlood flood-opacity="0.161"/>
      <feComposite operator="in" in2="blur"/>
      <feComposite in="SourceGraphic"/>
    </filter>
  </defs>
  <g id="Grupo_1075506" data-name="Grupo 1075506" transform="translate(-295.675 -747.966)">
    <g transform="matrix(1, 0, 0, 1, 295.67, 747.97)" filter="url(#Trazado_817349)">
      <path id="Trazado_817349-2" data-name="Trazado 817349" d="M284.231,95.319a80.653,80.653,0,1,1-80.653-80.653,80.654,80.654,0,0,1,80.653,80.653" transform="translate(-113.92 -8.67)" fill="#fffad0"/>
    </g>
    <g id="Grupo_1075511" data-name="Grupo 1075511">
      <path id="Trazado_817352" data-name="Trazado 817352" d="M238.08,112.5a1.721,1.721,0,0,1,1.329,2.119c-.478,5.215-.929,10.433-1.4,15.649-.394,4.358-.84,8.712-1.194,13.074a7.216,7.216,0,0,1-5.961,7.019c-.044.01-.067.109-.1.167H175.981c-.106-.35-.453-.3-.7-.4a6.969,6.969,0,0,1-4.856-6.144c-.732-7.324-1.338-14.66-2-21.991q-1.027-11.317-2.072-22.634c-.444-4.863-.9-9.725-1.312-14.591-.055-.659-.209-.87-.914-.908a4.326,4.326,0,0,1-4.071-4.241q-.089-4.31,0-8.622a4.413,4.413,0,0,1,4.359-4.326c.969-.04,1.94-.024,2.91,0a.785.785,0,0,0,.931-.613,9.258,9.258,0,0,1,9.249-6.51c2.076-.007,2.076-.007,2.7-2.05a24.4,24.4,0,0,1,47.026,1c.235.929.6,1.114,1.435,1.06a11.225,11.225,0,0,1,3.639.271,9.1,9.1,0,0,1,6.575,6.087c.208.593.438.792,1.043.758.895-.051,1.8-.032,2.693-.009a4.451,4.451,0,0,1,4.514,4.511q.047,4.095,0,8.192a4.388,4.388,0,0,1-4.265,4.508c-.475.035-.667.105-.714.642-.542,6.188-1.119,12.373-1.684,18.559-.094,1.037-.164,2.076-.265,3.113-.137,1.4-.465,1.746-1.891,2.043a1.9,1.9,0,0,1-1.343-2.349c.143-.957.172-1.931.259-2.9.537-5.938,1.046-11.878,1.641-17.809.1-1.014,0-1.313-1.12-1.31q-30.343.057-60.688.029c-.358,0-.717.022-1.075.034-2.369-.012-4.739,0-7.106-.052-.675-.015-.661.29-.616.778q.671,7.236,1.323,14.474,1.035,11.311,2.074,22.622c.663,7.291,1.3,14.584,1.976,21.874a3.963,3.963,0,0,0,3.867,3.645c1.793.046,3.588-.009,5.383-.019,3.7.012,7.4.033,11.1.034q17.622.006,35.242,0a4.056,4.056,0,0,0,4.317-3.644c.088-.749.146-1.5.213-2.252q1.214-13.518,2.427-27.036c.118-1.3.556-1.713,1.9-1.858M200.57,47.182a2.544,2.544,0,0,1,.873,1.124,1.775,1.775,0,0,1-1.562,1.984,8.374,8.374,0,0,0-1.228.389,14.747,14.747,0,0,0-8.908,8.832H217.3a.689.689,0,0,0,.013-.24c-.1-.267-.215-.532-.336-.791a14.534,14.534,0,0,0-9.6-8.15c-1.093-.308-1.692-.868-1.661-2.024.708-1.288,1.115-1.484,2.51-1.09A17.763,17.763,0,0,1,220.089,57.5c.93,2.062.9,2.04,3.159,2.068.868.01.9-.245.678-.981a20.824,20.824,0,0,0-5.968-9.555,20.028,20.028,0,0,0-12-5.472,9.569,9.569,0,0,0-1.053-.179,21.328,21.328,0,0,0-21.24,13.944c-.814,2.225-.812,2.175,1.505,2.249.919.029,1.248-.3,1.565-1.131A17.672,17.672,0,0,1,199.1,47.159a2.359,2.359,0,0,1,1.466.023m-17.9,15.64c-1.973-.012-3.949-.094-5.919-.017a5.586,5.586,0,0,0-5.172,3.82h8.714c.179.012.358.034.536.034q27.108,0,54.216,0c.19,0,.429.109.576-.122a5.93,5.93,0,0,0-5.852-3.748q-23.174-.008-46.348,0c-.25,0-.5.025-.751.039m-9.264,17.8a2.929,2.929,0,0,0,.32.036q34.326,0,68.651,0c1.119,0,1.511-.42,1.516-1.593.011-2.335,0-4.67,0-7,0-1.914-.245-2.159-2.163-2.159q-33.57,0-67.141,0c-.394,0-.788.031-1.182.047-2.945-.017-5.89-.047-8.835-.041a1.187,1.187,0,0,0-1.295,1.282q-.029,4.1,0,8.194a1.167,1.167,0,0,0,1.287,1.274c2.946,0,5.891-.023,8.837-.037" transform="translate(181.75 739.3)" fill="#030303"/>
      <path id="Trazado_817353" data-name="Trazado 817353" d="M238.08,112.5c-1.346.145-1.785.555-1.9,1.858q-1.219,13.518-2.427,27.036c-.068.751-.126,1.5-.213,2.252a4.057,4.057,0,0,1-4.318,3.645q-17.62.008-35.241,0c-3.7,0-7.4-.023-11.1-.034a7.521,7.521,0,0,1-1.729-4.842q-.2-2.937-.464-5.868c-.261-2.91-.558-5.817-.822-8.726-.174-1.918-.3-3.841-.478-5.759-.261-2.838-.554-5.673-.816-8.511-.176-1.918-.307-3.84-.485-5.758-.258-2.767-.551-5.53-.808-8.3-.175-1.882-.285-3.771-.475-5.651-.333-3.3-.715-6.593-.824-9.911.359-.012.717-.034,1.076-.034q30.344,0,60.687-.029c1.118,0,1.222.3,1.121,1.31-.6,5.932-1.1,11.872-1.641,17.809-.088.966-.117,1.94-.259,2.9a1.9,1.9,0,0,0,1.342,2.349c.087,1.43-.36,2.831-.226,4.263m-57.173,1.58h0c0,5.892-.022,11.784.009,17.676a5.4,5.4,0,1,0,10.794.062q.039-17.73,0-35.461a5.055,5.055,0,0,0-1.764-3.906,5.115,5.115,0,0,0-5.7-1,5.025,5.025,0,0,0-3.318,4.847c-.043,5.928-.015,11.856-.015,17.785m45.359.037q0-8.516-.006-17.03a8.452,8.452,0,0,0-.147-1.925,5.4,5.4,0,0,0-10.65,1.157c-.046,3.664-.014,7.329-.014,10.994q0,12.126,0,24.252a5.462,5.462,0,0,0,3.61,5.336,5.373,5.373,0,0,0,7.189-5.107c.046-5.892.012-11.785.015-17.677m-28.087-.021q0,8.622.005,17.245a7.392,7.392,0,0,0,.124,1.6,5.4,5.4,0,0,0,10.671-1.143q.025-17.676,0-35.353a5.246,5.246,0,0,0-.123-1.173,5.394,5.394,0,0,0-10.669,1.144c-.026,5.892-.008,11.784-.01,17.676" transform="translate(181.75 739.3)" fill="#b3dafd"/>
      <path id="Trazado_817354" data-name="Trazado 817354" d="M173.41,69.947c.394-.016.788-.046,1.181-.046q33.571,0,67.142,0c1.918,0,2.162.244,2.162,2.158,0,2.335.008,4.67,0,7.006-.005,1.172-.4,1.592-1.516,1.593q-34.326,0-68.651,0a2.678,2.678,0,0,1-.32-.036q0-5.336.005-10.672" transform="translate(181.75 739.3)" fill="#daecfe"/>
      <path id="Trazado_817355" data-name="Trazado 817355" d="M175.98,83.932c.109,3.317.491,6.612.824,9.911.19,1.88.3,3.768.475,5.651.257,2.766.55,5.53.807,8.3.179,1.917.309,3.84.486,5.758.261,2.838.555,5.673.815,8.511.176,1.918.305,3.84.479,5.759.264,2.909.56,5.816.822,8.726q.263,2.931.464,5.867a7.513,7.513,0,0,0,1.729,4.842c-1.795.011-3.59.065-5.383.02a3.965,3.965,0,0,1-3.867-3.646c-.673-7.29-1.313-14.583-1.976-21.874q-1.027-11.312-2.074-22.622-.663-7.236-1.323-14.474c-.045-.488-.059-.793.616-.777,2.368.053,4.737.039,7.106.051" transform="translate(181.75 739.3)" fill="#8ac9fd"/>
      <path id="Trazado_817356" data-name="Trazado 817356" d="M182.668,62.822c.25-.013.5-.038.751-.038q23.175,0,46.348,0a5.928,5.928,0,0,1,5.852,3.747c-.147.231-.386.122-.575.122q-27.108.011-54.216,0c-.179,0-.358-.022-.537-.034a2.308,2.308,0,0,1,.344-1.327,10.891,10.891,0,0,1,2.033-2.476" transform="translate(181.75 739.3)" fill="#b4dbfe"/>
      <path id="Trazado_817357" data-name="Trazado 817357" d="M173.41,69.947q0,5.335-.005,10.672c-2.946.014-5.891.034-8.837.037a1.167,1.167,0,0,1-1.287-1.274q-.033-4.1,0-8.194a1.185,1.185,0,0,1,1.295-1.281c2.945-.006,5.89.024,8.835.04" transform="translate(181.75 739.3)" fill="#b3d6f6"/>
      <path id="Trazado_817358" data-name="Trazado 817358" d="M205.723,48.306h-4.28a2.552,2.552,0,0,0-.873-1.125,4.052,4.052,0,0,1,.837-.822,38.294,38.294,0,0,1,4.552-2.8,20.022,20.022,0,0,1,12,5.472,20.818,20.818,0,0,1,5.968,9.555c.222.736.19.991-.678.98-2.263-.027-2.229-.005-3.159-2.067a17.76,17.76,0,0,0-11.856-10.281c-1.4-.394-1.8-.2-2.51,1.09" transform="translate(181.75 739.3)" fill="#d7e9fb"/>
      <path id="Trazado_817359" data-name="Trazado 817359" d="M205.959,43.557a38.374,38.374,0,0,0-4.552,2.8,4.052,4.052,0,0,0-.836.823,2.362,2.362,0,0,0-1.467-.023A17.674,17.674,0,0,0,186.736,58.44c-.316.832-.646,1.16-1.564,1.131-2.318-.074-2.319-.024-1.506-2.249a21.331,21.331,0,0,1,21.24-13.944,9.569,9.569,0,0,1,1.053.179" transform="translate(181.75 739.3)" fill="#b1d8fa"/>
      <path id="Trazado_817360" data-name="Trazado 817360" d="M182.668,62.822a10.891,10.891,0,0,0-2.033,2.476,2.308,2.308,0,0,0-.344,1.327h-8.714a5.589,5.589,0,0,1,5.172-3.82c1.97-.076,3.946.006,5.919.017" transform="translate(181.75 739.3)" fill="#8bc1ef"/>
      <path id="Trazado_817361" data-name="Trazado 817361" d="M180.907,114.076c0-5.928-.028-11.857.014-17.785a5.027,5.027,0,0,1,3.319-4.847,5.117,5.117,0,0,1,5.7,1,5.055,5.055,0,0,1,1.764,3.906q.021,17.732,0,35.461a5.4,5.4,0,1,1-10.794-.061c-.03-5.892-.009-11.785-.009-17.677Zm7.534,3.657c.013-7.073.036-14.146.028-21.219a2.172,2.172,0,0,0-2.228-2.262,2.141,2.141,0,0,0-2.094,2.268c-.026,2.37-.015,4.74-.009,7.11q.02,7.053.05,14.107c-.014,4.706-.046,9.413-.028,14.119a2.046,2.046,0,0,0,2.14,2.085,2.109,2.109,0,0,0,2.167-2.2c.017-4.67-.013-9.341-.026-14.012" transform="translate(181.75 739.3)" fill="#020203"/>
      <path id="Trazado_817362" data-name="Trazado 817362" d="M226.264,114.114c0,5.892.032,11.784-.013,17.676a5.374,5.374,0,0,1-7.189,5.108,5.461,5.461,0,0,1-3.61-5.337q-.014-12.126,0-24.252c0-3.664-.031-7.33.015-10.994a5.4,5.4,0,0,1,10.65-1.157,8.4,8.4,0,0,1,.146,1.925q.017,8.516.005,17.031m-3.286,3.623c.015-7.108.041-14.216.034-21.325a2.1,2.1,0,0,0-2.088-2.16,2.148,2.148,0,0,0-2.222,2.156c-.015,7.109.011,14.218.023,21.326-.012,4.671-.042,9.342-.026,14.012a2.111,2.111,0,0,0,2.167,2.195,2.045,2.045,0,0,0,2.14-2.086c.019-4.706-.014-9.412-.028-14.118" transform="translate(181.75 739.3)" fill="#020203"/>
      <path id="Trazado_817363" data-name="Trazado 817363" d="M198.179,114.092c0-5.892-.016-11.784.009-17.676a5.394,5.394,0,0,1,10.67-1.144,5.251,5.251,0,0,1,.122,1.173q.009,17.676,0,35.353a5.4,5.4,0,0,1-10.67,1.143,7.327,7.327,0,0,1-.125-1.6q-.012-8.622,0-17.245m3.277,3.644c-.012,4.707-.042,9.413-.023,14.12a2.15,2.15,0,0,0,4.3,0c.02-4.707-.011-9.413-.023-14.12.013-7.109.036-14.217.027-21.326a2.154,2.154,0,1,0-4.307,0c-.009,7.109.015,14.217.027,21.326" transform="translate(181.75 739.3)" fill="#010202"/>
      <path id="Trazado_817364" data-name="Trazado 817364" d="M184.188,117.737q-.025-7.053-.05-14.107c-.006-2.37-.018-4.74.009-7.11a2.141,2.141,0,0,1,2.094-2.268,2.172,2.172,0,0,1,2.228,2.262c.008,7.073-.016,14.146-.028,21.219a5.1,5.1,0,0,1-4.253,0" transform="translate(181.75 739.3)" fill="#8ac8fd"/>
      <path id="Trazado_817365" data-name="Trazado 817365" d="M184.188,117.737a5.1,5.1,0,0,0,4.253,0c.012,4.671.043,9.342.026,14.012a2.11,2.11,0,0,1-2.168,2.2,2.048,2.048,0,0,1-2.14-2.086c-.017-4.706.015-9.412.029-14.118" transform="translate(181.75 739.3)" fill="#5fb7fc"/>
      <path id="Trazado_817366" data-name="Trazado 817366" d="M218.725,117.734c-.012-7.109-.038-14.218-.023-21.326a2.148,2.148,0,0,1,2.222-2.156,2.1,2.1,0,0,1,2.088,2.16c.007,7.108-.019,14.217-.034,21.325a5.249,5.249,0,0,1-4.253,0" transform="translate(181.75 739.3)" fill="#8ac8fd"/>
      <path id="Trazado_817367" data-name="Trazado 817367" d="M218.725,117.734a5.249,5.249,0,0,0,4.253,0c.014,4.706.047,9.412.028,14.118a2.045,2.045,0,0,1-2.14,2.086,2.11,2.11,0,0,1-2.167-2.195c-.016-4.671.014-9.341.026-14.012" transform="translate(181.75 739.3)" fill="#5fb7fc"/>
      <path id="Trazado_817368" data-name="Trazado 817368" d="M201.456,117.736c-.012-7.109-.036-14.217-.027-21.326a2.154,2.154,0,1,1,4.307,0c.009,7.109-.014,14.217-.027,21.326a5.241,5.241,0,0,1-4.253,0" transform="translate(181.75 739.3)" fill="#8ac9fd"/>
      <path id="Trazado_817369" data-name="Trazado 817369" d="M201.456,117.736a5.241,5.241,0,0,0,4.253,0c.012,4.707.043,9.413.023,14.12a2.15,2.15,0,0,1-4.3,0c-.019-4.707.011-9.413.023-14.12" transform="translate(181.75 739.3)" fill="#5fb7fc"/>
    </g>
  </g>
</svg>
