<svg xmlns="http://www.w3.org/2000/svg" xmlns:xlink="http://www.w3.org/1999/xlink" width="96" height="96" viewBox="0 0 96 96">
  <defs>
    <clipPath id="clip-path">
      <rect id="Rectángulo_378028" data-name="Rectángulo 378028" width="56.259" height="60.634" transform="translate(0 0)" fill="none"/>
    </clipPath>
  </defs>
  <g id="Grupo_1075512" data-name="Grupo 1075512" transform="translate(19237.999 12204)">
    <g id="Grupo_246409" data-name="Grupo 246409" transform="translate(-20589.332 -12499)">
      <circle id="Elipse_4282" data-name="Elipse 4282" cx="48" cy="48" r="48" transform="translate(1351.333 295)" fill="#fffad0"/>
    </g>
    <g id="Grupo_1075483" data-name="Grupo 1075483" transform="translate(-19219.129 -12185)">
      <g id="Grupo_1075482" data-name="Grupo 1075482" clip-path="url(#clip-path)">
        <path id="Trazado_820010" data-name="Trazado 820010" d="M3.932,5.182A1.915,1.915,0,1,1,2.017,7.1,1.854,1.854,0,0,1,3.932,5.182" fill="#73665c"/>
        <path id="Trazado_820011" data-name="Trazado 820011" d="M47.386,1.451a2.5,2.5,0,0,1,2.521,2.52,2.521,2.521,0,1,1-5.041,0,2.5,2.5,0,0,1,2.52-2.52" fill="#73665c"/>
        <path id="Trazado_820012" data-name="Trazado 820012" d="M37.2,46.821h.1L48.8,35.125a3.655,3.655,0,0,1,5.041,0,3.652,3.652,0,0,1,0,5.142L37.1,57,14.619,56.2l-3.126,3.125L1.411,49.24l9.679-9.678,2.319.3,20.164,2.218.907.1a3.4,3.4,0,0,1,2.017.908,3.509,3.509,0,0,1,1.009,2.016,4.723,4.723,0,0,1-.3,1.714" fill="#ffd8a8"/>
        <path id="Trazado_820013" data-name="Trazado 820013" d="M33.473,41.78v.4L13.309,39.966l.1-.706a2.743,2.743,0,0,1,2.52-2.723l8.368-.806,5.545,1.411a4.593,4.593,0,0,1,3.63,4.638" fill="#73665c"/>
        <path id="Trazado_820014" data-name="Trazado 820014" d="M51.318,9.013A17.083,17.083,0,0,1,49.5,24.742,17.21,17.21,0,0,1,35.388,31.9,17.37,17.37,0,0,1,37.2,16.172c3.226-4.638,8.671-1.009,14.115-7.159" fill="#80af52"/>
        <path id="Trazado_820015" data-name="Trazado 820015" d="M30.751,1.451c-.4,5.948,4.335,6.957,3.528,10.99a12.58,12.58,0,0,1-7.158,9.074,12.5,12.5,0,0,1-3.529-10.99,12.448,12.448,0,0,1,7.159-9.074" fill="#80af52"/>
        <path id="Trazado_820016" data-name="Trazado 820016" d="M22.685,21.616A15.655,15.655,0,0,1,24.3,35.63a15.706,15.706,0,0,1-12.6-6.352,15.655,15.655,0,0,1-1.614-14.014c4.84,5.444,9.679,2.319,12.6,6.352" fill="#80af52"/>
        <path id="Trazado_820017" data-name="Trazado 820017" d="M54.947,26.657a1.311,1.311,0,1,1-1.311,1.311,1.272,1.272,0,0,1,1.311-1.311"/>
        <path id="Trazado_820018" data-name="Trazado 820018" d="M51.116,50.551a1.311,1.311,0,1,1-1.311,1.311,1.5,1.5,0,0,1,1.311-1.311"/>
        <path id="Trazado_820019" data-name="Trazado 820019" d="M39.824,3.972a1.311,1.311,0,1,1-1.311,1.311,1.272,1.272,0,0,1,1.311-1.311"/>
        <path id="Trazado_820020" data-name="Trazado 820020" d="M13.309,5.182A1.311,1.311,0,1,1,12,6.493a1.5,1.5,0,0,1,1.311-1.311"/>
        <path id="Trazado_820021" data-name="Trazado 820021" d="M8.268,32.908a1.335,1.335,0,0,1,1.311,1.311,1.251,1.251,0,0,1-1.311,1.209,1.335,1.335,0,0,1-1.312-1.31,1.317,1.317,0,0,1,1.312-1.21"/>
        <path id="Trazado_820022" data-name="Trazado 820022" d="M2.017,24.136a1.311,1.311,0,1,1,0,2.621A1.335,1.335,0,0,1,.7,25.447a1.272,1.272,0,0,1,1.312-1.311"/>
        <path id="Trazado_820023" data-name="Trazado 820023" d="M14.619,57.508a1.231,1.231,0,0,1-.907-.4L8.065,51.459A1.283,1.283,0,0,1,9.88,49.644l5.646,5.646a1.278,1.278,0,0,1,0,1.815,1.812,1.812,0,0,1-.907.4"/>
        <path id="Trazado_820024" data-name="Trazado 820024" d="M11.393,60.634a1.234,1.234,0,0,1-.908-.4L.4,50.148a1.5,1.5,0,0,1-.4-.907,1.232,1.232,0,0,1,.4-.907l9.679-9.68a1.3,1.3,0,0,1,1.008-.4l23.39,2.521A4.587,4.587,0,0,1,37.3,42.083,5.038,5.038,0,0,1,38.413,43.8l9.478-9.679a4.847,4.847,0,0,1,6.855,6.855L38.01,57.912a1.5,1.5,0,0,1-.907.4l-21.98-.806L12.3,60.331a1.4,1.4,0,0,1-.907.3M3.125,49.241l8.268,8.268,2.319-2.319a1.5,1.5,0,0,1,.907-.4l21.98.807L53.032,39.159a2.374,2.374,0,0,0,0-3.327,2.43,2.43,0,0,0-1.714-.706,2.354,2.354,0,0,0-1.713.706l-11.394,11.9-.1.1a4.576,4.576,0,0,1-4.133,2.319l-13.006-.6a1.261,1.261,0,0,1,.1-2.521l12.906.6a2.2,2.2,0,0,0,2.016-1.311,1.739,1.739,0,0,0,.1-1.008,2.3,2.3,0,0,0-.605-1.21,1.438,1.438,0,0,0-1.21-.6L11.393,40.973Z"/>
        <path id="Trazado_820025" data-name="Trazado 820025" d="M24.3,36.94h0a16.617,16.617,0,0,1-13.611-6.957A16.618,16.618,0,0,1,8.872,14.861a1.227,1.227,0,0,1,.907-.807,1.384,1.384,0,0,1,1.21.4c2.218,2.621,4.537,3.024,6.755,3.328,2.117.4,4.336.805,5.949,3.125a16.62,16.62,0,0,1,1.814,15.123,1.266,1.266,0,0,1-1.21.907M10.686,17.683A14,14,0,0,0,12.7,28.572,13.963,13.963,0,0,0,23.29,34.419a14.243,14.243,0,0,0-1.714-12c-1.009-1.513-2.42-1.715-4.336-2.118a14.394,14.394,0,0,1-6.554-2.622"/>
        <path id="Trazado_820026" data-name="Trazado 820026" d="M19.357,32.1a1.436,1.436,0,0,1-.6-.2,13.7,13.7,0,0,1-4.537-4.133,13.143,13.143,0,0,1-2.117-4.84,1.285,1.285,0,0,1,2.521-.5,11.383,11.383,0,0,0,1.714,3.932,9.9,9.9,0,0,0,3.73,3.327,1.292,1.292,0,0,1,.5,1.714,1.428,1.428,0,0,1-1.21.706"/>
        <path id="Trazado_820027" data-name="Trazado 820027" d="M27.222,22.623a1.091,1.091,0,0,1-.907-.4,14.164,14.164,0,0,1-3.932-12.1A14.186,14.186,0,0,1,30.246.14a1.058,1.058,0,0,1,1.21.1,1.011,1.011,0,0,1,.5,1.109A7.524,7.524,0,0,0,33.876,7c1.008,1.411,2.118,3.025,1.714,5.445a14.189,14.189,0,0,1-7.864,9.981.555.555,0,0,1-.5.2m2.42-19.055A10.9,10.9,0,0,0,24.9,10.726,11.165,11.165,0,0,0,27.525,19.9a11.356,11.356,0,0,0,5.645-7.662c.2-1.311-.3-2.117-1.31-3.529a12.074,12.074,0,0,1-2.218-5.142"/>
        <path id="Trazado_820028" data-name="Trazado 820028" d="M35.389,33.109a1.309,1.309,0,0,1-1.21-.807,18.3,18.3,0,0,1,2.016-16.837c1.815-2.621,4.235-3.025,6.553-3.428,2.521-.4,5.041-.908,7.663-3.832a1.3,1.3,0,0,1,1.21-.4,1.23,1.23,0,0,1,.907.808,18.3,18.3,0,0,1-2.016,16.836,18.291,18.291,0,0,1-15.123,7.663M50.713,11.331a14.875,14.875,0,0,1-7.461,3.127c-2.218.4-3.73.7-4.939,2.418A15.547,15.547,0,0,0,36.4,30.588a16.119,16.119,0,0,0,12.2-6.553,16.314,16.314,0,0,0,2.117-12.7"/>
        <path id="Trazado_820029" data-name="Trazado 820029" d="M41.034,27.867a1.238,1.238,0,0,1-1.108-.706,1.331,1.331,0,0,1,.6-1.714,11.715,11.715,0,0,0,6.251-7.461,1.247,1.247,0,0,1,2.42.6,13.636,13.636,0,0,1-2.017,4.436,13.864,13.864,0,0,1-5.545,4.638.74.74,0,0,1-.6.2"/>
        <path id="Trazado_820030" data-name="Trazado 820030" d="M33.473,42.99a1.335,1.335,0,0,1-1.311-1.311,3.546,3.546,0,0,0-2.722-3.428L24.1,36.941l-8.065.806a1.533,1.533,0,0,0-1.412,1.513,1.311,1.311,0,0,1-2.621,0,4.049,4.049,0,0,1,3.629-4.033L24.1,34.42h.4l5.545,1.412a6.145,6.145,0,0,1,4.638,5.948,1.162,1.162,0,0,1-1.21,1.21"/>
        <path id="Trazado_820031" data-name="Trazado 820031" d="M28.432,37.949a1.456,1.456,0,0,1-.706-.2,1.481,1.481,0,0,1-.5-1.411l.5-1.815a15.513,15.513,0,0,0-1.613-12.3v-.2a1.245,1.245,0,1,1,2.117-1.311l.1.2a18.65,18.65,0,0,1,2.218,12.7l4.134-2.822a1.23,1.23,0,1,1,1.411,2.016l-6.956,4.84a.917.917,0,0,1-.706.3"/>
        <path id="Trazado_820032" data-name="Trazado 820032" d="M3.932,10.222A3.126,3.126,0,1,1,7.058,7.1a3.14,3.14,0,0,1-3.126,3.125m0-3.73a.65.65,0,0,0-.6.605.65.65,0,0,0,.6.605A.651.651,0,0,0,4.537,7.1a.651.651,0,0,0-.605-.605"/>
        <path id="Trazado_820033" data-name="Trazado 820033" d="M47.386,7.7a3.829,3.829,0,0,1-3.831-3.831A3.745,3.745,0,0,1,47.386.14a3.83,3.83,0,0,1,3.832,3.831A3.745,3.745,0,0,1,47.386,7.7m0-5.041a1.335,1.335,0,0,0-1.311,1.31,1.312,1.312,0,0,0,2.623,0,1.411,1.411,0,0,0-1.312-1.31"/>
      </g>
    </g>
  </g>
</svg>
