<svg xmlns="http://www.w3.org/2000/svg" xmlns:xlink="http://www.w3.org/1999/xlink" width="146" height="146" viewBox="0 0 146 146">
  <defs>
    <clipPath id="clip-path">
      <rect id="Rectángulo_378064" data-name="Rectángulo 378064" width="136.625" height="136.625" fill="none"/>
    </clipPath>
  </defs>
  <g id="Grupo_1075902" data-name="Grupo 1075902" transform="translate(-465 -2084)">
    <circle id="Elipse_4296" data-name="Elipse 4296" cx="73" cy="73" r="73" transform="translate(465 2084)" fill="#1b3f5e"/>
    <g id="Grupo_1075541" data-name="Grupo 1075541" transform="translate(470 2089)">
      <g id="Grupo_1075540" data-name="Grupo 1075540" clip-path="url(#clip-path)">
        <path id="Trazado_820133" data-name="Trazado 820133" d="M66.426,131.879a65.453,65.453,0,1,1,65.452-65.452,65.452,65.452,0,0,1-65.452,65.452" transform="translate(1.886 1.886)" fill="#fff"/>
        <path id="Trazado_820134" data-name="Trazado 820134" d="M104.015,41.265a8.739,8.739,0,0,1-2.307-.994c-.3-.161-.461-.566-.685-.859l.138-.183c.234.028.471.048.705.084.369.057.735.147,1.106.184a5.28,5.28,0,0,0,5.386-2.313c.736-1.141,1.3-2.4,1.924-3.6.147-.286.234-.6.366-.9a1.817,1.817,0,0,0-1.145-2.621,5.387,5.387,0,0,0-3.935.323c-1.281.526-2.472,1.271-3.71,1.9-1.218.623-2.3,1.638-3.825,1.405a2.529,2.529,0,0,1-1.126-.329,28.749,28.749,0,0,1-3.495-2.887,8.849,8.849,0,0,0-5.154-2.624,2.32,2.32,0,0,0-2.466,1.463,6.526,6.526,0,0,1-3.271,2.792,54.64,54.64,0,0,0-5.217,2.748c-1.644.988-2.839,2.4-2.389,4.481.5,2.3-.46,3.966-1.943,5.538-1.554,1.649-3.03,3.371-4.563,5.038a4.783,4.783,0,0,1-1.023.734,3.378,3.378,0,0,0-1.814,2.517,31.875,31.875,0,0,0,.039,4.468,1.337,1.337,0,0,0,.722.912c1.324.568,2.7,1.011,4.036,1.553a2.976,2.976,0,0,0,2.246.059c.8-.287,1.613-.509,2.421-.763a2.653,2.653,0,0,1,1.953.126,22,22,0,0,0,11.919,1.65c.872-.117.962-.319,1.414.849a22.517,22.517,0,0,0,5.681,8.943,10.384,10.384,0,0,0,8.245,2.582c.566-.054,1.132-.119,1.722-.183-.338.993-2.885,1.6-5.141,1.206,0,.5-.022.982,0,1.46a29.814,29.814,0,0,0,4.019,13.478,26.979,26.979,0,0,0,7.557,8.572,2.11,2.11,0,0,1,.925,1.824c.034.993.083,1.984.128,2.977.965-1.366,1.888-2.762,2.75-4.2a23.1,23.1,0,0,1-5.074-6.985,1.018,1.018,0,0,1-.062-.661c.422.573.848,1.143,1.264,1.72a20.767,20.767,0,0,0,4.569,4.713A67.145,67.145,0,0,0,121.1,39.618c-3.261.21-6.5.827-9.737,1.334a20.382,20.382,0,0,1-7.351.314" transform="translate(9.755 4.143)" fill="#1b3f5e"/>
        <path id="Trazado_820135" data-name="Trazado 820135" d="M36.83,70.963a22.5,22.5,0,0,0,5.681-8.944c.454-1.167.542-.965,1.415-.849a21.978,21.978,0,0,0,11.919-1.649,2.644,2.644,0,0,1,1.952-.126c.808.254,1.627.474,2.422.763a2.984,2.984,0,0,0,2.245-.059c1.336-.542,2.713-.986,4.037-1.553a1.341,1.341,0,0,0,.72-.911,31.545,31.545,0,0,0,.039-4.469,3.377,3.377,0,0,0-1.814-2.518,4.732,4.732,0,0,1-1.021-.733c-1.535-1.666-3.01-3.389-4.565-5.037-1.483-1.573-2.437-3.242-1.942-5.538.449-2.084-.744-3.494-2.39-4.481a54.235,54.235,0,0,0-5.216-2.749,6.512,6.512,0,0,1-3.271-2.793,2.323,2.323,0,0,0-2.466-1.46,8.852,8.852,0,0,0-5.155,2.622,28.432,28.432,0,0,1-3.495,2.887A2.53,2.53,0,0,1,34.8,33.7c-1.526.231-2.607-.782-3.825-1.405-1.239-.634-2.429-1.379-3.711-1.9a5.391,5.391,0,0,0-3.934-.324,1.818,1.818,0,0,0-1.147,2.621c.133.3.219.612.368.9.626,1.21,1.188,2.466,1.923,3.6A5.285,5.285,0,0,0,29.864,39.5c.371-.037.736-.125,1.106-.183.233-.036.47-.059.705-.085l.138.183c-.225.293-.389.7-.686.861a8.757,8.757,0,0,1-2.307.993,20.4,20.4,0,0,1-7.35-.314c-3.3-.516-6.594-1.151-9.914-1.349a51.1,51.1,0,0,0-5.933.006,67.173,67.173,0,0,0,8.488,64.471A34.75,34.75,0,0,1,14.05,99.7a1.685,1.685,0,0,1,.856-1.52,19.53,19.53,0,0,0,5.588-5.429c.417-.576.843-1.145,1.265-1.719a1.011,1.011,0,0,1-.063.661,22.944,22.944,0,0,1-5.169,7.081,2.452,2.452,0,0,0-1,2.236q.236,2.74.461,5.48,1.423,1.753,2.962,3.4a3.405,3.405,0,0,0,.082-.443c.191-3.181.358-6.364.469-9.549a2.114,2.114,0,0,1,.925-1.824,27,27,0,0,0,7.559-8.572A29.813,29.813,0,0,0,32,76.028c.026-.477,0-.957,0-1.46-2.256.393-4.8-.214-5.141-1.205.592.063,1.157.129,1.723.183a10.387,10.387,0,0,0,8.243-2.582" transform="translate(0.145 4.143)" fill="#1b3f5e"/>
      </g>
    </g>
  </g>
</svg>
