<svg id="Grupo_1074020" data-name="Grupo 1074020" xmlns="http://www.w3.org/2000/svg" xmlns:xlink="http://www.w3.org/1999/xlink" width="148.952" height="105.291" viewBox="0 0 148.952 105.291">
  <defs>
    <clipPath id="clip-path">
      <rect id="Rectángulo_377418" data-name="Rectángulo 377418" width="148.952" height="105.291" fill="none"/>
    </clipPath>
  </defs>
  <g id="Grupo_1074019" data-name="Grupo 1074019" clip-path="url(#clip-path)">
    <path id="Trazado_818382" data-name="Trazado 818382" d="M51.35,4.072c-.552,7.688-4.4,13.4-10.677,17.724-2.129,1.467-4.015,3.266-6.475,4.256a2.17,2.17,0,0,0-1.075,2.23c.011.358.655.766,1.085,1.03,7.165,4.4,14.073,9.147,16.379,17.872a22.208,22.208,0,0,1-8.841,23.609c-2.742,1.905-5.5,3.793-8.219,5.724-.292.207-.647.695-.586.966.294,1.321,1.371,1.949,2.459,2.6,7.233,4.329,13.557,9.463,15.446,18.284a15.374,15.374,0,0,1,.244,4.408,2.468,2.468,0,0,1-2.894,2.5,3.15,3.15,0,0,1-2.44-3.073c-.032-6.534-3.9-10.741-8.611-14.294a117.7,117.7,0,0,0-10-6.265c-1.857-1.127-3.4.123-4.8.991-5,3.095-10.249,5.924-13.809,10.861a13.862,13.862,0,0,0-2.913,8.047c-.02,1.929-.726,3.664-2.7,3.717C.652,105.32,0,103.5.129,101.407c.539-8.862,5.978-14.455,12.636-19.361,1.776-1.308,4.072-1.843,5.417-3.8.626-.911.315-1.371-.431-1.826a64.243,64.243,0,0,1-13-10.149c-3.846-3.986-5.63-15.457-3.54-20.6C4.43,37.762,10.7,33.242,17.566,29.127c.295-.177.691-.619.643-.855-.184-.887-.281-1.855-1.265-2.36A34.656,34.656,0,0,1,2.711,13.259,17.336,17.336,0,0,1,.043,2.96C.177,1.18,1.269-.033,3.023.074A2.964,2.964,0,0,1,5.684,3.239c.082,6.761,4.2,10.955,9.13,14.607,2.4,1.782,5.129,3.135,7.5,4.956,3.854,2.961,6.714.046,9.506-1.647,3.941-2.39,7.868-4.989,10.645-8.821a14.847,14.847,0,0,0,3.14-7.9c.14-2.245.378-4.965,3.913-4.084,1.91.476,1.532,2.256,1.834,3.726M45.719,51.637c.38-3.97-2.338-7.7-5.731-11.1a36.522,36.522,0,0,0-9-6.583c-2.171-1.127-4.123-3.856-7.139-2.081-2.749,1.619-5.461,3.313-8.094,5.113C11.691,39.77,7.892,42.987,6.376,47.81A15,15,0,0,0,9.548,62.943c4.177,4.84,9.652,7.782,14.959,10.994a3,3,0,0,0,2.544-.09c2.809-1.6,5.571-3.3,8.234-5.133,5.61-3.859,10.4-8.315,10.433-17.077" transform="translate(0 -0.032)" fill="#3b5620"/>
    <path id="Trazado_818383" data-name="Trazado 818383" d="M192.911,4.094c.309,6.179,4.2,10.135,8.708,13.56,2.74,2.083,5.795,3.751,8.723,5.581,2.245,1.4,4.154.543,6.2-.714,4.018-2.474,8.062-4.913,11.347-8.333,2.877-3,4.935-6.424,4.894-10.834-.015-1.662.926-3.251,2.7-3.328,2.08-.091,3.029,1.511,2.963,3.45-.272,8.077-4.792,13.652-10.769,18.486-2.393,1.934-5.519,2.853-7.379,5.462-.507.711-.307,1.231.489,1.667a48.263,48.263,0,0,1,13.2,10.453c4.194,4.76,5.5,14.9,3.011,20.689-2.848,6.631-7.9,10.868-13.783,14.459-.842.513-1.668,1.056-2.473,1.625-1.982,1.4-.249,2.432.608,2.954a56.2,56.2,0,0,1,9.9,7.318c4.583,4.409,7.329,9.71,7.022,16.22a2.536,2.536,0,0,1-2.8,2.467,2.848,2.848,0,0,1-2.535-2.763c.013-6.536-3.7-10.861-8.475-14.456-3.018-2.274-6.362-4.117-9.563-6.147a3.624,3.624,0,0,0-3.876-.109c-5.633,2.926-11.042,6.177-15.06,11.23a14.208,14.208,0,0,0-3.223,8.935c-.014,1.5-.955,3.123-2.517,3.25-2.1.172-2.969-1.332-2.906-3.412.283-9.349,5.782-15.262,13.1-19.99,1.159-.749,2.4-1.38,3.505-2.2,3.83-2.867,0-3.751-1.49-4.7-6.026-3.831-11.625-8.1-14.027-15.107a20.873,20.873,0,0,1,1.137-16.8c2.579-5.033,6.77-8.46,11.285-11.571,1.278-.881,2.717-1.527,4.035-2.356a1.357,1.357,0,0,0,.572-1.045,2.476,2.476,0,0,0-1.274-2.128,35.225,35.225,0,0,1-14.374-12.719A17.456,17.456,0,0,1,187.227,2.9C187.338,1.06,188.4-.3,190.25.059c1.911.375,2.619,2.121,2.662,4.035m39.943,48.559c.051-4.872-2.218-8.628-5.58-11.928a38.628,38.628,0,0,0-9.174-6.8c-2.136-1.11-4.178-3.817-7.038-2.172-5.252,3.02-10.359,6.2-14.509,10.827-5.55,6.183-4.719,16.893,1.705,22.192a70.636,70.636,0,0,0,9.732,6.972c1.841,1.054,3.627,3.5,6.212,2.11a72.912,72.912,0,0,0,8.4-5.3c5.422-3.965,10.436-8.287,10.249-15.9" transform="translate(-89.489 0)" fill="#3b5620"/>
    <path id="Trazado_818384" data-name="Trazado 818384" d="M131.485,52.254c-4.16,0-7.982-.058-11.8.033-1.244.03-2.592.228-1.609,2.218.643,1.3,1.163,2.946-.418,3.994-1.456.964-2.929.512-4.058-.765a69.545,69.545,0,0,1-5.024-5.958c-1.265-1.806-.9-3.672.7-5.335,1.691-1.759,3.177-3.713,4.862-5.479a2.69,2.69,0,0,1,3.53-.342c1.483.944,1.149,2.486.559,3.749-.831,1.778.157,2.325,1.513,2.358q6.249.148,12.5,0c1.156-.028,2.349-.34,1.685-2.181-.491-1.359-1.23-3.125.609-4.055,1.619-.818,3.121-.11,4.272,1.238,1.549,1.814,3.222,3.543,4.59,5.485,1.282,1.819,1.132,3.651-.585,5.365-1.77,1.768-3.285,3.787-4.992,5.623a2.633,2.633,0,0,1-3.366.351c-1.377-.726-1.282-2.089-.792-3.2,1.249-2.836-.189-3.275-2.174-3.1" transform="translate(-51.553 -19.183)" fill="#3b5620"/>
    <path id="Trazado_818385" data-name="Trazado 818385" d="M128.2,137.8c-2.8,0-5.6-.058-8.4.023-1.585.046-2.368.811-1.584,2.488.656,1.4.867,2.917-.612,3.8-1.393.837-2.806.438-3.916-.89a69.022,69.022,0,0,1-4.921-5.767c-2.333-3.525.811-5.633,2.619-7.886,1.217-1.517,2.3-3.743,4.521-3.73,3.752.021,2.671,2.7,2.152,4.832-.284,1.165.371,1.589,1.2,1.607,4.4.1,8.811.116,13.216.114,1.69,0,2-.9,1.5-2.409-.456-1.378-1.059-2.931.707-3.9a3.085,3.085,0,0,1,3.974,1.017c1.943,2.486,4.861,4.34,5.527,7.7.414,2.089-1.144,3.372-2.427,4.575-1.861,1.746-2.644,4.8-5.746,5.056-2.566.211-2.891-1.855-2.284-3.349,1.284-3.158-.33-3.354-2.663-3.273-.954.033-1.911.006-2.867.006V137.8" transform="translate(-51.612 -60.112)" fill="#3b5620"/>
    <path id="Trazado_818386" data-name="Trazado 818386" d="M223.893,193.977q-5.5,0-11.008,0c-1.954,0-3.135-.861-2.879-2.908.232-1.851,1.811-2.4,3.322-2.414,7.029-.088,14.063-.121,21.091.028,1.307.028,3,.687,3.105,2.436.134,2.2-1.486,2.887-3.335,2.927-3.43.075-6.864.021-10.3.021v-.092" transform="translate(-100.402 -90.174)" fill="#3b5620"/>
    <path id="Trazado_818387" data-name="Trazado 818387" d="M36.5,2.773c3.5,0,7-.019,10.492.007,1.929.015,3.52.553,3.387,2.926-.121,2.154-1.954,2.508-3.439,2.531-7.025.111-14.055.109-21.077-.093-1.142-.033-2.95-.39-3.1-2.3-.183-2.288,1.322-2.961,3.182-3,3.518-.08,7.038-.023,10.558-.023V2.773" transform="translate(-10.876 -1.323)" fill="#3b5620"/>
    <path id="Trazado_818388" data-name="Trazado 818388" d="M218.959,11.04c5.189,0,10.377.009,15.566,0a2.539,2.539,0,0,1,2.834,2.995,2.814,2.814,0,0,1-3.027,2.6c-6.038.048-12.076-.013-18.114-.044a2.648,2.648,0,0,1-2.856-2.746c-.1-2.047,1.01-3.011,3.121-2.768a21.77,21.77,0,0,0,2.477.015V11.04" transform="translate(-102.02 -5.276)" fill="#3b5620"/>
    <path id="Trazado_818389" data-name="Trazado 818389" d="M38.153,185.829c-2.847,0-5.694-.029-8.54.01-1.923.027-3.3-.878-3.371-2.722-.064-1.763,1.236-2.819,3.073-2.811q9.414.042,18.828.178a2.248,2.248,0,0,1,2.065,2.574c-.026,1.062-.534,2.546-2.09,2.582-3.32.078-6.642.024-9.964.024,0,.055,0,.11,0,.165" transform="translate(-12.547 -86.217)" fill="#3b5620"/>
    <path id="Trazado_818390" data-name="Trazado 818390" d="M44.191,23.354c2.61.039,5.684-.343,5.184,3.731-.229,1.867-2.131,1.949-3.613,1.822-1.845-.158-3.766.632-5.542-.429a2.429,2.429,0,0,1-1.368-2.763,3.442,3.442,0,0,1,2.8-2.336,25.229,25.229,0,0,1,2.538-.024" transform="translate(-18.528 -11.156)" fill="#3b5620"/>
    <path id="Trazado_818391" data-name="Trazado 818391" d="M232.925,173.235c-1.473-.489-3.378.518-5.1-.49-.852-.5-1.947-.616-1.919-2.1a2.328,2.328,0,0,1,2.158-2.487,24.985,24.985,0,0,1,6.571-.034,2.437,2.437,0,0,1,2.007,3.145,3.585,3.585,0,0,1-3.714,1.967" transform="translate(-108.02 -80.294)" fill="#3b5620"/>
    <path id="Trazado_818392" data-name="Trazado 818392" d="M38.923,82.1c3.16,0,6.331-.16,9.474.068A2.185,2.185,0,0,1,50.167,85.2a3.378,3.378,0,0,1-3.1,2.206q-8.213.092-16.428-.1a3.025,3.025,0,0,1-2.925-2.376c-.223-1.775.956-3.028,2.921-3.059,2.76-.045,5.521-.011,8.282-.011,0,.081,0,.163,0,.245" transform="translate(-13.241 -39.136)" fill="#3b5620"/>
    <path id="Trazado_818393" data-name="Trazado 818393" d="M38.109,115.094c-2.631-.331-5.879.559-9.008-.393a2.314,2.314,0,0,1-1.625-2.668,3.225,3.225,0,0,1,2.953-2.426q8.183-.009,16.366-.01c1.77,0,3.157,1.035,3.238,2.578.093,1.781-1.26,2.917-3.221,2.919-2.717,0-5.433,0-8.7,0" transform="translate(-13.099 -52.406)" fill="#3b5620"/>
    <path id="Trazado_818394" data-name="Trazado 818394" d="M225.953,115.174c-3.193-.162-6.4-.221-9.574-.534a2.195,2.195,0,0,1-1.863-2.66,3.111,3.111,0,0,1,2.986-2.418c5.668-.088,11.339-.163,17-.024a2.907,2.907,0,0,1,2.631,2.635,2.761,2.761,0,0,1-2.771,2.836c-2.8.067-5.6.018-8.407.018l-.006.148" transform="translate(-102.551 -52.341)" fill="#3b5620"/>
    <path id="Trazado_818395" data-name="Trazado 818395" d="M225.952,87.41c-2.759,0-5.53.157-8.271-.066-1.359-.111-2.942-.817-3.085-2.468-.175-2.015,1.342-2.9,3.081-2.936,5.448-.11,10.9-.076,16.349-.062,1.951,0,3.345,1.04,3.123,2.984a3.1,3.1,0,0,1-3.116,2.437c-2.688.127-5.387.036-8.082.036v.074" transform="translate(-102.607 -39.144)" fill="#3b5620"/>
  </g>
</svg>
