<svg xmlns="http://www.w3.org/2000/svg" xmlns:xlink="http://www.w3.org/1999/xlink" width="146" height="146" viewBox="0 0 146 146">
  <defs>
    <clipPath id="clip-path">
      <rect id="Rectángulo_378065" data-name="Rectángulo 378065" width="134.32" height="134.32" fill="none"/>
    </clipPath>
  </defs>
  <g id="Grupo_1075543" data-name="Grupo 1075543" transform="translate(-990 -2084)">
    <circle id="Elipse_4297" data-name="Elipse 4297" cx="73" cy="73" r="73" transform="translate(990 2084)" fill="#1b3f5e"/>
    <g id="Grupo_1075542" data-name="Grupo 1075542" transform="translate(995.313 2091)">
      <g id="Grupo_1075542-2" data-name="Grupo 1075542" clip-path="url(#clip-path)">
        <path id="Trazado_820136" data-name="Trazado 820136" d="M66.178,130.265A64.864,64.864,0,1,1,131.042,65.4a64.863,64.863,0,0,1-64.863,64.863" transform="translate(1.367 1.266)" fill="#fff"/>
        <path id="Trazado_820137" data-name="Trazado 820137" d="M105.524,30.531A60.457,60.457,0,0,0,94.8,35.465a7.536,7.536,0,0,0,2.792-.355.8.8,0,0,1,.526-.2,1.665,1.665,0,0,1,1.189.849,1.1,1.1,0,0,1,.2,1.07c-.287.764-1.49,1.145-2.181,1.3a.243.243,0,0,1-.063.008.282.282,0,0,1-.064-.557c.719-.166,1.615-.515,1.78-.956.023-.058.088-.234-.131-.54-.387-.538-.642-.609-.733-.613a.153.153,0,0,0-.156.055.314.314,0,0,1-.12.085,9.063,9.063,0,0,1-5.085.112.265.265,0,0,1-.169-.156,1.475,1.475,0,0,1-.469-.612.726.726,0,0,0-.393-.314,13.663,13.663,0,0,0-2.881-1,27.7,27.7,0,0,0-10.354.588,4.944,4.944,0,0,0-3.3,1.88.527.527,0,0,1-.244.172v0l-.029.009a1.367,1.367,0,0,1-.221.061c-.5.131-1.633.359-2.114-.07-.629-.56-2.1,1.287-.463,1.957a4.112,4.112,0,0,1,1.941,2.555,1.794,1.794,0,0,1,.211.764h0a1.9,1.9,0,0,1-.032.521c-.253-.084-.5-.147-.74-.247-1.055-.452-2.091-.958-3.166-1.362a7.565,7.565,0,0,0-8.119,1.239,1.1,1.1,0,0,0-.407,1.335,7.508,7.508,0,0,0,5.727,5.364,26.2,26.2,0,0,0,5.033.311c.478.014.64.1.647.6.016,1.029.068,2.059.164,3.084.2,2.2.457,4.388.661,6.585a2.265,2.265,0,0,1-.15,1.066A16.316,16.316,0,0,1,72.7,62.511a7,7,0,0,0-.9,5.229c.217,1.2.408,1.341,1.628,1.363a2.606,2.606,0,0,1,1.389.436c1.778,1.265,3.628,1.8,5.714.817a.577.577,0,0,1,.448.009,4.115,4.115,0,0,0,3.35.245,2.678,2.678,0,0,1,2.989.78c1.137,1.115,2.329,2.181,3.408,3.352a4.157,4.157,0,0,1,.863,1.739,9.854,9.854,0,0,1,.176,2.12,13.81,13.81,0,0,0,.66,4.566,4.141,4.141,0,0,1,.2,1.373,2.724,2.724,0,0,0,2.043,2.947,1.482,1.482,0,0,1,.726.635,4.324,4.324,0,0,0,2.651,2.371,9.292,9.292,0,0,1,1.719.934c.294.174.533.491.843.573a4.126,4.126,0,0,1,2.1,1.643,6.832,6.832,0,0,0,2.57,2.146.706.706,0,0,1,.356.338,33.232,33.232,0,0,1,2.684,9.827c.038.53.052,1.062.071,1.594a66.651,66.651,0,0,0,4.428-5.419c-.094-.775-.186-1.549-.271-2.323-.046-.426-.067-.854-.1-1.282a20.264,20.264,0,0,1,1.059,2.636,66,66,0,0,0,1.968-73.252c-3.041-.489-5.543,1.222-9.945,2.623" transform="translate(7.995 3.604)"/>
        <path id="Trazado_820138" data-name="Trazado 820138" d="M36.181,70.235a22.121,22.121,0,0,0,5.585-8.793c.446-1.148.533-.949,1.392-.835a21.607,21.607,0,0,0,11.718-1.621,2.6,2.6,0,0,1,1.919-.124c.794.25,1.6.466,2.381.75a2.934,2.934,0,0,0,2.207-.058c1.314-.533,2.667-.969,3.969-1.527a1.318,1.318,0,0,0,.708-.9,31.012,31.012,0,0,0,.038-4.394,3.32,3.32,0,0,0-1.784-2.476,4.652,4.652,0,0,1-1-.721C61.8,47.9,60.352,46.209,58.824,44.59c-1.458-1.546-2.4-3.187-1.909-5.444.442-2.049-.732-3.435-2.349-4.405a53.321,53.321,0,0,0-5.128-2.7,6.4,6.4,0,0,1-3.216-2.746A2.284,2.284,0,0,0,43.8,27.856a8.7,8.7,0,0,0-5.068,2.578,27.953,27.953,0,0,1-3.436,2.838,2.488,2.488,0,0,1-1.106.325c-1.5.227-2.563-.769-3.76-1.381-1.218-.623-2.388-1.355-3.648-1.873a5.306,5.306,0,0,0-3.867-.319A1.788,1.788,0,0,0,21.784,32.6c.131.29.216.6.361.881.616,1.189,1.168,2.424,1.891,3.543a5.194,5.194,0,0,0,5.3,2.275c.365-.036.724-.123,1.088-.18.229-.035.462-.058.694-.084l.136.18c-.221.288-.383.687-.674.846a8.609,8.609,0,0,1-2.268.976,20.058,20.058,0,0,1-7.226-.308C17.841,40.223,14.6,39.6,11.335,39.4a49.7,49.7,0,0,0-5.64,0,66.021,66.021,0,0,0,8.092,62.269c-.045-1.057-.059-2.118,0-3.184a1.657,1.657,0,0,1,.841-1.494,19.2,19.2,0,0,0,5.494-5.337c.41-.566.829-1.126,1.244-1.69a.994.994,0,0,1-.062.649,22.557,22.557,0,0,1-5.082,6.961,2.408,2.408,0,0,0-.983,2.2c.123,1.429.241,2.858.36,4.288.994,1.253,2.023,2.477,3.1,3.654.18-3.009.338-6.019.442-9.032a2.079,2.079,0,0,1,.909-1.794,26.54,26.54,0,0,0,7.431-8.427,29.31,29.31,0,0,0,3.95-13.252c.026-.469,0-.941,0-1.436-2.218.386-4.723-.21-5.055-1.185.582.062,1.137.127,1.694.18a10.211,10.211,0,0,0,8.1-2.538" transform="translate(0.17 3.604)" fill="#1b3f5e"/>
      </g>
    </g>
  </g>
</svg>
