<svg xmlns="http://www.w3.org/2000/svg" xmlns:xlink="http://www.w3.org/1999/xlink" width="400" height="260" viewBox="0 0 400 260">
  <defs>
    <clipPath id="clip-path">
      <rect id="Rectángulo_376654" data-name="Rectángulo 376654" width="358.328" height="227.072" fill="none"/>
    </clipPath>
    <clipPath id="clip-path-3">
      <rect id="Rectángulo_376633" data-name="Rectángulo 376633" width="7.353" height="3.349" fill="none"/>
    </clipPath>
    <clipPath id="clip-path-4">
      <rect id="Rectángulo_376635" data-name="Rectángulo 376635" width="153.822" height="6.418" fill="none"/>
    </clipPath>
    <clipPath id="clip-path-5">
      <rect id="Rectángulo_376636" data-name="Rectángulo 376636" width="15.437" height="17.31" fill="none"/>
    </clipPath>
    <clipPath id="clip-path-6">
      <rect id="Rectángulo_376639" data-name="Rectángulo 376639" width="93.587" height="13.159" fill="none"/>
    </clipPath>
    <clipPath id="clip-path-7">
      <rect id="Rectángulo_376640" data-name="Rectángulo 376640" width="79.642" height="20.858" fill="none"/>
    </clipPath>
    <clipPath id="clip-path-8">
      <rect id="Rectángulo_376641" data-name="Rectángulo 376641" width="79.642" height="20.859" fill="none"/>
    </clipPath>
    <clipPath id="clip-path-11">
      <rect id="Rectángulo_376648" data-name="Rectángulo 376648" width="43.468" height="3.141" fill="none"/>
    </clipPath>
    <clipPath id="clip-path-12">
      <rect id="Rectángulo_376651" data-name="Rectángulo 376651" width="81.702" height="97.114" fill="none"/>
    </clipPath>
    <clipPath id="clip-path-13">
      <rect id="Rectángulo_376652" data-name="Rectángulo 376652" width="12.353" height="13.174" fill="none"/>
    </clipPath>
  </defs>
  <g id="Grupo_1075546" data-name="Grupo 1075546" transform="translate(-1125 -998)">
    <rect id="Rectángulo_378070" data-name="Rectángulo 378070" width="400" height="260" transform="translate(1125 998)" fill="#fff"/>
    <g id="Grupo_1072871" data-name="Grupo 1072871" transform="translate(1145.339 1007.492)">
      <g id="Grupo_1072870" data-name="Grupo 1072870" clip-path="url(#clip-path)">
        <g id="Grupo_1072869" data-name="Grupo 1072869">
          <g id="Grupo_1072868" data-name="Grupo 1072868" clip-path="url(#clip-path)">
            <path id="Trazado_817019" data-name="Trazado 817019" d="M434.946,187.725c-12.355,28.754-36.158,52.221-64.693,64.945" transform="translate(-84.001 -42.59)" fill="none" stroke="#3b5620" stroke-miterlimit="10" stroke-width="1"/>
            <path id="Trazado_817020" data-name="Trazado 817020" d="M449.239,192.1a23.674,23.674,0,0,0,8.151-14.324c.217-1.359.261-2.907-.653-3.936a1.543,1.543,0,0,0-.959-.555,1.977,1.977,0,0,0-1.545.84c-2.146,2.411-2.891,5.747-3.26,8.954s-1.07,5.561-1.736,9.02" transform="translate(-101.921 -39.312)" fill="#3b5620"/>
            <path id="Trazado_817021" data-name="Trazado 817021" d="M440.754,204.444a23.679,23.679,0,0,0,1.8-16.383c-.34-1.333-.913-2.771-2.159-3.354a1.547,1.547,0,0,0-1.1-.129,1.976,1.976,0,0,0-1.085,1.383c-1.014,3.065-.374,6.423.559,9.514s1.223,5.529,1.984,8.968" transform="translate(-99.302 -41.864)" fill="#3b5620"/>
            <path id="Trazado_817022" data-name="Trazado 817022" d="M430.1,220.031a23.676,23.676,0,0,0,3.792-16.039c-.174-1.365-.568-2.862-1.733-3.593a1.54,1.54,0,0,0-1.077-.262,1.973,1.973,0,0,0-1.245,1.24c-1.381,2.918-1.157,6.329-.608,9.51s.537,5.637.872,9.144" transform="translate(-97.285 -45.402)" fill="#3b5620"/>
            <path id="Trazado_817023" data-name="Trazado 817023" d="M417.27,233.689a23.676,23.676,0,0,0,3.791-16.039c-.174-1.365-.567-2.862-1.733-3.593a1.544,1.544,0,0,0-1.077-.262,1.975,1.975,0,0,0-1.246,1.24c-1.381,2.918-1.156,6.329-.608,9.51s.537,5.637.872,9.144" transform="translate(-94.374 -48.501)" fill="#3b5620"/>
            <path id="Trazado_817024" data-name="Trazado 817024" d="M398.429,249.514a23.679,23.679,0,0,0,5.433-15.56c-.032-1.375-.268-2.906-1.352-3.754a1.545,1.545,0,0,0-1.044-.373,1.977,1.977,0,0,0-1.368,1.1c-1.675,2.759-1.806,6.175-1.59,9.4s-.049,5.662-.08,9.185" transform="translate(-90.394 -52.142)" fill="#3b5620"/>
            <path id="Trazado_817025" data-name="Trazado 817025" d="M383.369,259.735a25.274,25.274,0,0,0,6.3-14.778c.118-1.368.079-2.916-.76-3.89a1.272,1.272,0,0,0-.854-.5c-.525-.026-.962.451-1.288.929-1.728,2.534-2.2,5.907-2.359,9.131s-.643,5.614-1.044,9.106" transform="translate(-86.977 -54.579)" fill="#3b5620"/>
            <path id="Trazado_817026" data-name="Trazado 817026" d="M437.849,213.483a25.653,25.653,0,0,0,16.956-3.253c1.255-.738,2.555-1.736,2.821-3.128a1.514,1.514,0,0,0-.154-1.111,1.965,1.965,0,0,0-1.671-.632c-3.346-.05-6.562,1.6-9.433,3.452s-5.252,2.881-8.519,4.673" transform="translate(-99.337 -46.591)" fill="#3b5620"/>
            <path id="Trazado_817027" data-name="Trazado 817027" d="M428.826,226.5a25.654,25.654,0,0,0,17.242.889c1.395-.418,2.9-1.077,3.486-2.364a1.514,1.514,0,0,0,.117-1.116A1.965,1.965,0,0,0,448.2,222.9c-3.238-.847-6.755-.013-9.985,1.1s-5.788,1.544-9.388,2.5" transform="translate(-97.29 -50.491)" fill="#3b5620"/>
            <path id="Trazado_817028" data-name="Trazado 817028" d="M415.347,241.161a25.651,25.651,0,0,0,16.716,4.32c1.45-.13,3.053-.475,3.889-1.619a1.513,1.513,0,0,0,.337-1.07c-.084-.6-.673-1.009-1.239-1.287-3-1.478-6.615-1.365-10-.919s-5.979.355-9.7.575" transform="translate(-94.232 -54.516)" fill="#3b5620"/>
            <path id="Trazado_817029" data-name="Trazado 817029" d="M396.492,256.03a25.653,25.653,0,0,0,17.258.5c1.385-.448,2.871-1.14,3.433-2.441a1.515,1.515,0,0,0,.092-1.118,1.968,1.968,0,0,0-1.494-.981c-3.256-.775-6.753.137-9.958,1.323s-5.752,1.672-9.33,2.712" transform="translate(-89.954 -57.106)" fill="#3b5620"/>
            <path id="Trazado_817030" data-name="Trazado 817030" d="M381.246,266.4a25.651,25.651,0,0,0,15.183,8.22c1.439.223,3.077.274,4.164-.634a1.515,1.515,0,0,0,.585-.957,1.964,1.964,0,0,0-.893-1.549c-2.558-2.158-6.091-2.919-9.487-3.3s-5.889-1.1-9.552-1.778" transform="translate(-86.495 -60.44)" fill="#3b5620"/>
            <path id="Trazado_817031" data-name="Trazado 817031" d="M106.849,129.359c7.227,39.5,34.763,74.709,71.349,91.247" transform="translate(-24.241 -29.348)" fill="none" stroke="#3b5620" stroke-miterlimit="10" stroke-width="1"/>
            <path id="Trazado_817032" data-name="Trazado 817032" d="M107.806,134.238a23.673,23.673,0,0,1-4.752-15.781c.092-1.373.394-2.891,1.514-3.691a1.544,1.544,0,0,1,1.058-.327,1.974,1.974,0,0,1,1.318,1.163c1.555,2.83,1.537,6.248,1.181,9.456s-.2,5.659-.319,9.18" transform="translate(-23.369 -25.961)" fill="#3b5620"/>
            <path id="Trazado_817033" data-name="Trazado 817033" d="M113.588,148.458a23.677,23.677,0,0,1,1.9-16.372c.629-1.224,1.508-2.5,2.854-2.788a1.539,1.539,0,0,1,1.1.12,1.973,1.973,0,0,1,.748,1.59c.3,3.214-1.067,6.344-2.667,9.148s-2.425,5.117-3.933,8.3" transform="translate(-25.616 -29.324)" fill="#3b5620"/>
            <path id="Trazado_817034" data-name="Trazado 817034" d="M120.746,165.993a23.68,23.68,0,0,1-.12-16.481c.475-1.291,1.191-2.663,2.491-3.116a1.543,1.543,0,0,1,1.108-.016,1.977,1.977,0,0,1,.938,1.487c.7,3.153-.284,6.428-1.528,9.407s-1.781,5.376-2.889,8.719" transform="translate(-27.045 -33.189)" fill="#3b5620"/>
            <path id="Trazado_817035" data-name="Trazado 817035" d="M130.211,182.167a23.676,23.676,0,0,1-.12-16.481c.474-1.291,1.191-2.663,2.491-3.116a1.543,1.543,0,0,1,1.108-.016,1.977,1.977,0,0,1,.938,1.487c.7,3.153-.284,6.428-1.528,9.407s-1.781,5.376-2.889,8.719" transform="translate(-29.192 -36.858)" fill="#3b5620"/>
            <path id="Trazado_817036" data-name="Trazado 817036" d="M145.144,201.755a23.679,23.679,0,0,1-1.826-16.379c.338-1.334.909-2.773,2.155-3.358a1.541,1.541,0,0,1,1.1-.13,1.975,1.975,0,0,1,1.087,1.381c1.018,3.065.383,6.423-.546,9.515s-1.214,5.53-1.97,8.971" transform="translate(-32.355 -41.254)" fill="#3b5620"/>
            <path id="Trazado_817037" data-name="Trazado 817037" d="M157.413,214.98a25.272,25.272,0,0,1-2.851-15.812c.189-1.361.573-2.861,1.607-3.623a1.276,1.276,0,0,1,.944-.295c.518.092.837.654,1.048,1.193,1.119,2.855.829,6.25.264,9.427s-.625,5.616-1.014,9.11" transform="translate(-35.009 -44.295)" fill="#3b5620"/>
            <path id="Trazado_817038" data-name="Trazado 817038" d="M111.01,156.854a25.654,25.654,0,0,1-15.8-6.952c-1.058-1-2.1-2.262-2.053-3.678a1.511,1.511,0,0,1,.4-1.049,1.965,1.965,0,0,1,1.771-.244c3.273.7,6.04,3.021,8.426,5.469s4.477,3.979,7.263,6.454" transform="translate(-21.134 -32.86)" fill="#3b5620"/>
            <path id="Trazado_817039" data-name="Trazado 817039" d="M116.569,171.588a25.653,25.653,0,0,1-17.006-2.978c-1.266-.718-2.583-1.695-2.871-3.082a1.514,1.514,0,0,1,.135-1.113,1.963,1.963,0,0,1,1.661-.66c3.345-.1,6.587,1.492,9.488,3.3s5.3,2.8,8.593,4.534" transform="translate(-21.927 -37.151)" fill="#3b5620"/>
            <path id="Trazado_817040" data-name="Trazado 817040" d="M126.371,189.027a25.651,25.651,0,0,1-17.258.485c-1.385-.451-2.87-1.144-3.43-2.445a1.514,1.514,0,0,1-.09-1.118,1.964,1.964,0,0,1,1.5-.979c3.257-.772,6.753.144,9.956,1.334s5.75,1.678,9.327,2.723" transform="translate(-23.94 -41.901)" fill="#3b5620"/>
            <path id="Trazado_817041" data-name="Trazado 817041" d="M141.525,207.572a25.654,25.654,0,0,1-16.936-3.355c-1.25-.746-2.544-1.752-2.8-3.145a1.516,1.516,0,0,1,.16-1.11,1.966,1.966,0,0,1,1.675-.623c3.347-.029,6.552,1.639,9.412,3.51s5.234,2.912,8.49,4.724" transform="translate(-27.622 -45.225)" fill="#3b5620"/>
            <path id="Trazado_817042" data-name="Trazado 817042" d="M154.023,222.079a25.651,25.651,0,0,1-16.633,4.628c-1.453-.1-3.061-.419-3.918-1.547a1.515,1.515,0,0,1-.357-1.063c.073-.6.654-1.021,1.216-1.31,2.975-1.533,6.589-1.487,9.984-1.1s5.985.244,9.708.4" transform="translate(-30.199 -50.243)" fill="#3b5620"/>
            <path id="Trazado_817043" data-name="Trazado 817043" d="M14.728,200.656c40.11-1.83,80.609,17.091,104.942,49.029" transform="translate(-3.341 -45.496)" fill="none" stroke="#3b5620" stroke-miterlimit="10" stroke-width="1"/>
            <path id="Trazado_817044" data-name="Trazado 817044" d="M19.852,199.989A23.68,23.68,0,0,0,3.407,198.9c-1.317.4-2.729,1.034-3.256,2.3a1.542,1.542,0,0,0-.081,1.106,1.975,1.975,0,0,0,1.43,1.023c3.106.879,6.432.094,9.479-.973s5.471-1.463,8.874-2.373" transform="translate(0 -44.903)" fill="#3b5620"/>
            <path id="Trazado_817045" data-name="Trazado 817045" d="M35.224,201.9A23.678,23.678,0,0,0,19.7,207.421c-1.051.888-2.1,2.031-2.076,3.407a1.542,1.542,0,0,0,.364,1.046,1.975,1.975,0,0,0,1.718.373c3.2-.425,5.943-2.465,8.317-4.653s4.442-3.512,7.2-5.7" transform="translate(-3.998 -45.805)" fill="#3b5620"/>
            <path id="Trazado_817046" data-name="Trazado 817046" d="M53.834,205.081a23.679,23.679,0,0,0-16.086,3.585c-1.152.752-2.328,1.76-2.476,3.127a1.544,1.544,0,0,0,.233,1.084,1.976,1.976,0,0,0,1.66.579c3.228-.03,6.2-1.719,8.823-3.6s4.837-2.943,7.847-4.774" transform="translate(-7.999 -46.477)" fill="#3b5620"/>
            <path id="Trazado_817047" data-name="Trazado 817047" d="M71.721,210.671a23.679,23.679,0,0,0-16.086,3.585c-1.152.753-2.328,1.76-2.476,3.128a1.54,1.54,0,0,0,.233,1.083,1.975,1.975,0,0,0,1.659.58c3.229-.031,6.2-1.72,8.823-3.6s4.837-2.943,7.847-4.774" transform="translate(-12.057 -47.745)" fill="#3b5620"/>
            <path id="Trazado_817048" data-name="Trazado 817048" d="M94.1,220.958a23.675,23.675,0,0,0-16.371,1.9c-1.224.629-2.5,1.509-2.788,2.854a1.542,1.542,0,0,0,.121,1.1,1.973,1.973,0,0,0,1.59.748c3.214.3,6.344-1.068,9.148-2.668s5.117-2.426,8.3-3.935" transform="translate(-16.993 -49.976)" fill="#3b5620"/>
            <path id="Trazado_817049" data-name="Trazado 817049" d="M109.687,230.035a25.27,25.27,0,0,0-16.048.774c-1.284.491-2.66,1.2-3.17,2.38a1.278,1.278,0,0,0-.075.986c.206.484.826.67,1.4.754,3.034.45,6.277-.595,9.246-1.86s5.331-1.87,8.649-3.034" transform="translate(-20.493 -51.972)" fill="#3b5620"/>
            <path id="Trazado_817050" data-name="Trazado 817050" d="M42.531,198.45a25.65,25.65,0,0,0-10.324-13.838c-1.211-.807-2.677-1.542-4.045-1.174a1.513,1.513,0,0,0-.933.622,1.964,1.964,0,0,0,.16,1.78c1.415,3.033,4.3,5.208,7.222,6.983s4.883,3.468,7.921,5.627" transform="translate(-6.142 -41.595)" fill="#3b5620"/>
            <path id="Trazado_817051" data-name="Trazado 817051" d="M58.161,200.574a25.654,25.654,0,0,0-6.722-15.9c-.984-1.073-2.232-2.137-3.648-2.106a1.515,1.515,0,0,0-1.055.382,1.965,1.965,0,0,0-.27,1.767c.65,3.283,2.934,6.084,5.346,8.5s3.914,4.534,6.349,7.355" transform="translate(-10.524 -41.42)" fill="#3b5620"/>
            <path id="Trazado_817052" data-name="Trazado 817052" d="M77.442,206.19a25.651,25.651,0,0,0-3.4-16.926c-.75-1.249-1.759-2.54-3.153-2.793a1.513,1.513,0,0,0-1.11.164,1.965,1.965,0,0,0-.618,1.677c-.02,3.347,1.658,6.548,3.537,9.4s2.927,5.226,4.749,8.477" transform="translate(-15.69 -42.298)" fill="#3b5620"/>
            <path id="Trazado_817053" data-name="Trazado 817053" d="M98.827,216.809a25.652,25.652,0,0,0-7.074-15.749c-1.008-1.051-2.278-2.086-3.694-2.024a1.516,1.516,0,0,0-1.046.405,1.964,1.964,0,0,0-.23,1.773c.723,3.268,3.069,6.016,5.534,8.383s4.013,4.446,6.51,7.212" transform="translate(-19.666 -45.156)" fill="#3b5620"/>
            <path id="Trazado_817054" data-name="Trazado 817054" d="M116.04,225.642a25.655,25.655,0,0,0,.773-17.248c-.427-1.392-1.1-2.888-2.387-3.471a1.514,1.514,0,0,0-1.116-.109,1.963,1.963,0,0,0-1,1.479c-.826,3.243.031,6.754,1.167,9.977s1.583,5.777,2.567,9.371" transform="translate(-25.405 -46.453)" fill="#3b5620"/>
            <path id="Trazado_817055" data-name="Trazado 817055" d="M144.549,220.43a28.38,28.38,0,0,0-21.93-7.4c-5.36.542-11.2,3.406-12.385,8.662-.561,2.5-.365,5.825-2.735,6.808-2.319.963-4.559-1.426-6.94-2.225-3.963-1.329-8.486,3.2-7.149,7.162.608,1.8,2.132,3.37,2.005,5.267-.172,2.583-3.365,3.93-5.922,3.529s-4.815-1.894-7.323-2.533-5.757,0-6.639,2.435c-.789,2.182.573,5.113-1.14,6.677a4.67,4.67,0,0,1-2.786.9c-21.72,2.062-45.641,5.958-43.211,9.817.664,1.055,2.363.719,3.609.7,46.231-.724,88.225-1.413,134.44,0" transform="translate(-6.404 -48.299)" fill="#dbf9bd"/>
            <path id="Trazado_817056" data-name="Trazado 817056" d="M345.107,128.715l13.705,53.741-2.607.665-16.957-52.913" transform="translate(-76.967 -29.202)" fill="#88d2ff"/>
            <path id="Trazado_817057" data-name="Trazado 817057" d="M325.376,121.2c-7,1.785-14.447-3.643-16.6-12.1s1.784-16.788,8.782-18.573,14.447,3.643,16.6,12.1-1.783,16.788-8.781,18.572m-6.623-25.969c-4.405,1.123-6.774,6.808-5.279,12.672s6.3,9.719,10.7,8.6,6.773-6.808,5.278-12.671-6.3-9.719-10.7-8.6" transform="translate(-69.919 -20.462)" fill="#e8505b"/>
            <path id="Trazado_817058" data-name="Trazado 817058" d="M337.536,110.97,341.7,127.31a1.536,1.536,0,0,1-2.977.759l-.47-1.846s-2.189-4.667-8.238-2.743c0,0,7.216-.9,7.461-.884s-.17-12.518.057-11.627" transform="translate(-74.873 -25.166)" fill="#e8505b"/>
            <path id="Trazado_817059" data-name="Trazado 817059" d="M341.065,130.74a3.967,3.967,0,0,1-4.818-2.86,6.365,6.365,0,0,0-.749-2c-.784-1.113-2.383-1.531-5.307-.786l-.741-4.131c1.537-.492,2.643-1.233,3.879-1.147.662-.081,1.212-.148,1.673-.2,0-1.266-.029-2.935-.049-4.214-.019-1.359,1.745-2.888,1.74-3.864-.006-1.751-1.8-3.521.371-3.812l2.138-.285,4.721,18.476a3.966,3.966,0,0,1-2.86,4.818" transform="translate(-74.744 -24.377)" fill="#e8505b"/>
            <path id="Trazado_817060" data-name="Trazado 817060" d="M349.436,128.084l.04,55.461,2.69,0,3.315-55.464" transform="translate(-79.279 -29.058)" fill="#88d2ff"/>
            <path id="Trazado_817061" data-name="Trazado 817061" d="M348.764,100.451c-.006-8.727,5.865-15.831,13.087-15.837s13.1,7.09,13.11,15.817-5.865,15.831-13.087,15.836-13.1-7.09-13.111-15.817m4.853,0c0,6.051,3.708,10.971,8.254,10.968s8.242-4.929,8.238-10.981-3.707-10.971-8.254-10.968-8.242,4.929-8.238,10.98" transform="translate(-79.126 -19.197)" fill="#e8505b"/>
            <path id="Trazado_817062" data-name="Trazado 817062" d="M351.905,109.137c0,.92.012,16.863.012,16.863a1.536,1.536,0,1,0,3.072,0l0-1.9s.963-5.064,7.3-4.7c0,0-7.214.915-7.448.993s-2.937-12.171-2.936-11.251" transform="translate(-79.839 -24.749)" fill="#e8505b"/>
            <path id="Trazado_817063" data-name="Trazado 817063" d="M352.746,129.247a3.966,3.966,0,0,0,3.959-3.965,6.376,6.376,0,0,1,.231-2.12c.484-1.272,1.929-2.074,4.947-2.076l-.307-4.185c-1.611-.1-2.866-.54-4.042-.15-.663.086-1.212.158-1.672.22-.308-1.227-.7-2.85-1-4.094-.318-1.322-2.406-2.365-2.643-3.312-.428-1.7.874-3.858-1.3-3.6l-2.142.254,0,19.069a3.966,3.966,0,0,0,3.965,3.959" transform="translate(-79.129 -24.036)" fill="#e8505b"/>
            <path id="Trazado_817064" data-name="Trazado 817064" d="M377.589,168.939l-6.975-1.259,10.835-59.991a.9.9,0,0,1,1.05-.729l5.2.938a.906.906,0,0,1,.729,1.051Z" transform="translate(-84.083 -24.263)" fill="#ffc25b"/>
            <path id="Trazado_817065" data-name="Trazado 817065" d="M390.256,114.712l-6.975-1.259,1.041-5.766a.9.9,0,0,1,1.05-.729l5.2.939a.905.905,0,0,1,.729,1.051Z" transform="translate(-86.957 -24.263)" fill="#fe7d90"/>
            <g id="Grupo_1072837" data-name="Grupo 1072837" transform="translate(295.949 89.195)" opacity="0.5">
              <g id="Grupo_1072836" data-name="Grupo 1072836">
                <g id="Grupo_1072835" data-name="Grupo 1072835" clip-path="url(#clip-path-3)">
                  <rect id="Rectángulo_376632" data-name="Rectángulo 376632" width="2.122" height="7.089" transform="translate(0 2.089) rotate(-79.76)" fill="#599fd2"/>
                </g>
              </g>
            </g>
            <rect id="Rectángulo_376634" data-name="Rectángulo 376634" width="66.197" height="12.235" transform="matrix(0.367, -0.93, 0.93, 0.367, 287.586, 153.945)" fill="#dbf9bd"/>
            <line id="Línea_922" data-name="Línea 922" x2="3.752" y2="1.479" transform="translate(318.701 97.37)" fill="#dbf9bd"/>
            <line id="Línea_923" data-name="Línea 923" x2="3.752" y2="1.479" transform="translate(317.441 100.569)" fill="#dbf9bd"/>
            <line id="Línea_924" data-name="Línea 924" x2="3.751" y2="1.479" transform="translate(316.18 103.768)" fill="#dbf9bd"/>
            <line id="Línea_925" data-name="Línea 925" x2="5.587" y2="2.202" transform="translate(313.084 106.243)" fill="#dbf9bd"/>
            <line id="Línea_926" data-name="Línea 926" x2="3.752" y2="1.479" transform="translate(313.658 110.166)" fill="#dbf9bd"/>
            <line id="Línea_927" data-name="Línea 927" x2="3.752" y2="1.479" transform="translate(312.397 113.365)" fill="#dbf9bd"/>
            <line id="Línea_928" data-name="Línea 928" x2="3.752" y2="1.479" transform="translate(311.136 116.563)" fill="#dbf9bd"/>
            <line id="Línea_929" data-name="Línea 929" x2="5.587" y2="2.202" transform="translate(308.04 119.039)" fill="#dbf9bd"/>
            <line id="Línea_930" data-name="Línea 930" x2="3.752" y2="1.479" transform="translate(308.615 122.961)" fill="#dbf9bd"/>
            <line id="Línea_931" data-name="Línea 931" x2="3.752" y2="1.479" transform="translate(307.354 126.16)" fill="#dbf9bd"/>
            <line id="Línea_932" data-name="Línea 932" x2="3.751" y2="1.479" transform="translate(306.093 129.359)" fill="#dbf9bd"/>
            <line id="Línea_933" data-name="Línea 933" x2="5.587" y2="2.202" transform="translate(302.997 131.834)" fill="#dbf9bd"/>
            <line id="Línea_934" data-name="Línea 934" x2="3.752" y2="1.479" transform="translate(303.571 135.757)" fill="#dbf9bd"/>
            <line id="Línea_935" data-name="Línea 935" x2="3.752" y2="1.479" transform="translate(302.311 138.956)" fill="#dbf9bd"/>
            <line id="Línea_936" data-name="Línea 936" x2="3.752" y2="1.479" transform="translate(301.05 142.155)" fill="#dbf9bd"/>
            <line id="Línea_937" data-name="Línea 937" x2="5.587" y2="2.202" transform="translate(297.954 144.63)" fill="#dbf9bd"/>
            <line id="Línea_938" data-name="Línea 938" x2="3.752" y2="1.478" transform="translate(298.528 148.552)" fill="#dbf9bd"/>
            <line id="Línea_939" data-name="Línea 939" x2="3.752" y2="1.479" transform="translate(297.267 151.751)" fill="#dbf9bd"/>
            <line id="Línea_940" data-name="Línea 940" x2="3.752" y2="1.479" transform="translate(296.006 154.95)" fill="#dbf9bd"/>
            <path id="Trazado_817066" data-name="Trazado 817066" d="M378.005,251.849H321.244l-9.533-85.866a1.843,1.843,0,0,1,1.832-2.046h72.165a1.843,1.843,0,0,1,1.832,2.046Z" transform="translate(-70.717 -37.193)" fill="#632059"/>
            <path id="Trazado_817067" data-name="Trazado 817067" d="M298.758,268.118l102.566,1.4c1.147.015,4.763-1.1-1.469-5.122-5.277-3.4-21.96-.342-21.96-.342s3.883-1.556,3.866-3.566a5.445,5.445,0,0,0-3.369-4.609,12.5,12.5,0,0,0-5.917-.779,37.705,37.705,0,0,0-11.917,2.666,3.456,3.456,0,1,0-4.008-5.611c2.562-3.47,6.524-18.848-5.651-25.626-15.26-8.494-26.849-1.5-29.321,3.609-1.255-5.018-7.012-8.818-10.805-9.76-8.649-2.148-14.283-1.511-22.357,2.26-2.857,1.334-6.681,5.89-8.58,8.407-2.974,3.941-3.438,9.182-3.6,14.117q-.186,5.556-.05,11.117" transform="translate(-62.646 -49.721)" fill="#dbf9bd"/>
            <g id="Grupo_1072840" data-name="Grupo 1072840" transform="translate(102.267 220.654)" opacity="0.6" style="isolation: isolate">
              <g id="Grupo_1072839" data-name="Grupo 1072839">
                <g id="Grupo_1072838" data-name="Grupo 1072838" clip-path="url(#clip-path-4)">
                  <path id="Trazado_817068" data-name="Trazado 817068" d="M286.1,288.614c0,1.772-34.434,3.209-76.911,3.209s-76.91-1.437-76.91-3.209,34.434-3.209,76.91-3.209,76.911,1.437,76.911,3.209" transform="translate(-132.278 -285.405)" fill="#3b5620"/>
                </g>
              </g>
            </g>
            <path id="Trazado_817069" data-name="Trazado 817069" d="M231.389,0a7.719,7.719,0,0,0-7.72,7.719v9.892h15.438V7.719A7.719,7.719,0,0,0,231.389,0m0,12.148a4.33,4.33,0,1,1,4.33-4.33,4.331,4.331,0,0,1-4.33,4.33" transform="translate(-50.745)" fill="#e8505b"/>
            <g id="Grupo_1072843" data-name="Grupo 1072843" transform="translate(172.925 0.301)" opacity="0.45">
              <g id="Grupo_1072842" data-name="Grupo 1072842">
                <g id="Grupo_1072841" data-name="Grupo 1072841" clip-path="url(#clip-path-5)">
                  <path id="Trazado_817070" data-name="Trazado 817070" d="M235.719,7.906a4.233,4.233,0,0,0-4.981-4.265A3.18,3.18,0,0,1,232.5,3.22a4.331,4.331,0,0,1,4.33,4.33,3.514,3.514,0,0,1-2.778,3.773,4.734,4.734,0,0,0,1.671-3.417m-9.691,8.805V6.819a7.532,7.532,0,0,1,3.245-6.43,7.717,7.717,0,0,0-5.6,7.417V17.7h15.437v-.987Z" transform="translate(-223.67 -0.389)" fill="#b03d44"/>
                </g>
              </g>
            </g>
            <path id="Trazado_817071" data-name="Trazado 817071" d="M275.623,229.148H145.2a7.532,7.532,0,0,1-7.532-7.532V30.982a7.531,7.531,0,0,1,7.532-7.531H275.623a7.531,7.531,0,0,1,7.532,7.531V221.616a7.532,7.532,0,0,1-7.532,7.532" transform="translate(-31.234 -5.32)" fill="#3e89cc"/>
            <rect id="Rectángulo_376637" data-name="Rectángulo 376637" width="128.618" height="189.562" transform="translate(114.87 26.197)" fill="#c3ecfe"/>
            <rect id="Rectángulo_376638" data-name="Rectángulo 376638" width="118.727" height="177.979" transform="translate(119.815 31.989)" fill="#fff"/>
            <path id="Trazado_817072" data-name="Trazado 817072" d="M264.819,26.262v7.731H171.232V26.262a5.429,5.429,0,0,1,5.427-5.427h82.732a5.424,5.424,0,0,1,5.427,5.427" transform="translate(-38.848 -4.727)" fill="#e8505b"/>
            <g id="Grupo_1072846" data-name="Grupo 1072846" transform="translate(132.384 16.108)" opacity="0.45">
              <g id="Grupo_1072845" data-name="Grupo 1072845">
                <g id="Grupo_1072844" data-name="Grupo 1072844" clip-path="url(#clip-path-6)">
                  <path id="Trazado_817073" data-name="Trazado 817073" d="M264.819,32.061v1.933H171.232V26.262a5.429,5.429,0,0,1,5.427-5.427h.75a8.126,8.126,0,0,0-2.559,5.628v5.6Z" transform="translate(-171.232 -20.835)" fill="#b03d44"/>
                </g>
              </g>
            </g>
            <g id="Grupo_1072849" data-name="Grupo 1072849" transform="translate(151.534 49.703)" opacity="0.15">
              <g id="Grupo_1072848" data-name="Grupo 1072848">
                <g id="Grupo_1072847" data-name="Grupo 1072847" clip-path="url(#clip-path-7)">
                  <line id="Línea_941" data-name="Línea 941" x2="19.286" transform="translate(1.207 1.206)" fill="none" stroke="#0964af" stroke-linecap="round" stroke-linejoin="round" stroke-width="3.122"/>
                  <line id="Línea_942" data-name="Línea 942" x2="14.664" transform="translate(63.771 7.355)" fill="none" stroke="#0964af" stroke-linecap="round" stroke-linejoin="round" stroke-width="3.122"/>
                  <line id="Línea_943" data-name="Línea 943" x2="56.21" transform="translate(1.207 7.355)" fill="none" stroke="#0964af" stroke-linecap="round" stroke-linejoin="round" stroke-width="3.122"/>
                  <line id="Línea_944" data-name="Línea 944" x2="77.229" transform="translate(1.207 13.503)" fill="none" stroke="#0964af" stroke-linecap="round" stroke-linejoin="round" stroke-width="3.122"/>
                  <line id="Línea_945" data-name="Línea 945" x2="24.547" transform="translate(53.888 19.652)" fill="none" stroke="#0964af" stroke-linecap="round" stroke-linejoin="round" stroke-width="3.122"/>
                  <line id="Línea_946" data-name="Línea 946" x2="46.571" transform="translate(1.207 19.652)" fill="none" stroke="#0964af" stroke-linecap="round" stroke-linejoin="round" stroke-width="3.122"/>
                  <line id="Línea_947" data-name="Línea 947" x2="51.615" transform="translate(26.821 1.206)" fill="none" stroke="#0964af" stroke-linecap="round" stroke-linejoin="round" stroke-width="3.122"/>
                </g>
              </g>
            </g>
            <g id="Grupo_1072852" data-name="Grupo 1072852" transform="translate(151.534 93.902)" opacity="0.15">
              <g id="Grupo_1072851" data-name="Grupo 1072851">
                <g id="Grupo_1072850" data-name="Grupo 1072850" clip-path="url(#clip-path-8)">
                  <line id="Línea_948" data-name="Línea 948" x2="19.286" transform="translate(1.207 1.207)" fill="none" stroke="#0964af" stroke-linecap="round" stroke-linejoin="round" stroke-width="3.122"/>
                  <line id="Línea_949" data-name="Línea 949" x2="14.664" transform="translate(63.771 7.355)" fill="none" stroke="#0964af" stroke-linecap="round" stroke-linejoin="round" stroke-width="3.122"/>
                  <line id="Línea_950" data-name="Línea 950" x2="56.21" transform="translate(1.207 7.355)" fill="none" stroke="#0964af" stroke-linecap="round" stroke-linejoin="round" stroke-width="3.122"/>
                  <line id="Línea_951" data-name="Línea 951" x2="77.229" transform="translate(1.207 13.504)" fill="none" stroke="#0964af" stroke-linecap="round" stroke-linejoin="round" stroke-width="3.122"/>
                  <line id="Línea_952" data-name="Línea 952" x2="24.547" transform="translate(53.888 19.652)" fill="none" stroke="#0964af" stroke-linecap="round" stroke-linejoin="round" stroke-width="3.122"/>
                  <line id="Línea_953" data-name="Línea 953" x2="46.571" transform="translate(1.207 19.652)" fill="none" stroke="#0964af" stroke-linecap="round" stroke-linejoin="round" stroke-width="3.122"/>
                  <line id="Línea_954" data-name="Línea 954" x2="51.615" transform="translate(26.821 1.207)" fill="none" stroke="#0964af" stroke-linecap="round" stroke-linejoin="round" stroke-width="3.122"/>
                </g>
              </g>
            </g>
            <g id="Grupo_1072855" data-name="Grupo 1072855" transform="translate(151.534 136.555)" opacity="0.15">
              <g id="Grupo_1072854" data-name="Grupo 1072854">
                <g id="Grupo_1072853" data-name="Grupo 1072853" clip-path="url(#clip-path-8)">
                  <line id="Línea_955" data-name="Línea 955" x2="19.286" transform="translate(1.207 1.206)" fill="none" stroke="#0964af" stroke-linecap="round" stroke-linejoin="round" stroke-width="3.122"/>
                  <line id="Línea_956" data-name="Línea 956" x2="14.664" transform="translate(63.771 7.355)" fill="none" stroke="#0964af" stroke-linecap="round" stroke-linejoin="round" stroke-width="3.122"/>
                  <line id="Línea_957" data-name="Línea 957" x2="56.21" transform="translate(1.207 7.355)" fill="none" stroke="#0964af" stroke-linecap="round" stroke-linejoin="round" stroke-width="3.122"/>
                  <line id="Línea_958" data-name="Línea 958" x2="77.229" transform="translate(1.207 13.503)" fill="none" stroke="#0964af" stroke-linecap="round" stroke-linejoin="round" stroke-width="3.122"/>
                  <line id="Línea_959" data-name="Línea 959" x2="24.547" transform="translate(53.888 19.652)" fill="none" stroke="#0964af" stroke-linecap="round" stroke-linejoin="round" stroke-width="3.122"/>
                  <line id="Línea_960" data-name="Línea 960" x2="46.571" transform="translate(1.207 19.652)" fill="none" stroke="#0964af" stroke-linecap="round" stroke-linejoin="round" stroke-width="3.122"/>
                  <line id="Línea_961" data-name="Línea 961" x2="51.615" transform="translate(26.821 1.206)" fill="none" stroke="#0964af" stroke-linecap="round" stroke-linejoin="round" stroke-width="3.122"/>
                </g>
              </g>
            </g>
            <g id="Grupo_1072858" data-name="Grupo 1072858" transform="translate(151.534 179.981)" opacity="0.15">
              <g id="Grupo_1072857" data-name="Grupo 1072857">
                <g id="Grupo_1072856" data-name="Grupo 1072856" clip-path="url(#clip-path-8)">
                  <line id="Línea_962" data-name="Línea 962" x2="19.286" transform="translate(1.207 1.207)" fill="none" stroke="#0964af" stroke-linecap="round" stroke-linejoin="round" stroke-width="3.122"/>
                  <line id="Línea_963" data-name="Línea 963" x2="14.664" transform="translate(63.771 7.355)" fill="none" stroke="#0964af" stroke-linecap="round" stroke-linejoin="round" stroke-width="3.122"/>
                  <line id="Línea_964" data-name="Línea 964" x2="56.21" transform="translate(1.207 7.355)" fill="none" stroke="#0964af" stroke-linecap="round" stroke-linejoin="round" stroke-width="3.122"/>
                  <line id="Línea_965" data-name="Línea 965" x2="77.229" transform="translate(1.207 13.504)" fill="none" stroke="#0964af" stroke-linecap="round" stroke-linejoin="round" stroke-width="3.122"/>
                  <line id="Línea_966" data-name="Línea 966" x2="24.547" transform="translate(53.888 19.652)" fill="none" stroke="#0964af" stroke-linecap="round" stroke-linejoin="round" stroke-width="3.122"/>
                  <line id="Línea_967" data-name="Línea 967" x2="46.571" transform="translate(1.207 19.652)" fill="none" stroke="#0964af" stroke-linecap="round" stroke-linejoin="round" stroke-width="3.122"/>
                  <line id="Línea_968" data-name="Línea 968" x2="51.615" transform="translate(26.821 1.207)" fill="none" stroke="#0964af" stroke-linecap="round" stroke-linejoin="round" stroke-width="3.122"/>
                </g>
              </g>
            </g>
            <path id="Rectángulo_376644" data-name="Rectángulo 376644" d="M2.1,0H15.579a2.1,2.1,0,0,1,2.1,2.1V15.578a2.1,2.1,0,0,1-2.1,2.1H2.1a2.1,2.1,0,0,1-2.1-2.1V2.1A2.1,2.1,0,0,1,2.1,0Z" transform="translate(128.549 49.055)" fill="none" stroke="#2396b5" stroke-miterlimit="10" stroke-width="1.157"/>
            <path id="Rectángulo_376645" data-name="Rectángulo 376645" d="M2.1,0H15.579a2.1,2.1,0,0,1,2.1,2.1V15.579a2.1,2.1,0,0,1-2.1,2.1H2.1a2.1,2.1,0,0,1-2.1-2.1V2.1A2.1,2.1,0,0,1,2.1,0Z" transform="translate(128.549 93.11)" fill="none" stroke="#2396b5" stroke-miterlimit="10" stroke-width="1.157"/>
            <rect id="Rectángulo_376646" data-name="Rectángulo 376646" width="17.68" height="17.68" rx="2.102" transform="translate(128.549 137.166)" fill="none" stroke="#2396b5" stroke-miterlimit="10" stroke-width="1.157"/>
            <rect id="Rectángulo_376647" data-name="Rectángulo 376647" width="17.681" height="17.68" rx="2.102" transform="translate(128.548 181.222)" fill="none" stroke="#2396b5" stroke-miterlimit="10" stroke-width="1.157"/>
            <path id="Trazado_817074" data-name="Trazado 817074" d="M169.086,67.282l6.664,8.048L188.572,55.1" transform="translate(-38.362 -12.501)" fill="none" stroke="#ffa829" stroke-linecap="round" stroke-linejoin="round" stroke-width="3.47"/>
            <path id="Trazado_817075" data-name="Trazado 817075" d="M169.086,123.792l6.664,8.048,12.822-20.232" transform="translate(-38.362 -25.321)" fill="none" stroke="#ffa829" stroke-linecap="round" stroke-linejoin="round" stroke-width="3.47"/>
            <g id="Grupo_1072861" data-name="Grupo 1072861" transform="translate(57.429 222.605)" opacity="0.6" style="isolation: isolate">
              <g id="Grupo_1072860" data-name="Grupo 1072860">
                <g id="Grupo_1072859" data-name="Grupo 1072859" clip-path="url(#clip-path-11)">
                  <path id="Trazado_817076" data-name="Trazado 817076" d="M117.749,289.5c0,.867-9.731,1.57-21.734,1.57s-21.733-.7-21.733-1.57,9.731-1.57,21.733-1.57,21.734.7,21.734,1.57" transform="translate(-74.282 -287.929)" fill="#3b5620"/>
                </g>
              </g>
            </g>
            <path id="Trazado_817077" data-name="Trazado 817077" d="M107.157,172.584a2.01,2.01,0,0,0,.636,1.1,2.277,2.277,0,0,0,1.294.588c1.28.133,3.26.406,5.351.686a67.6,67.6,0,0,0,8.554.825,8.049,8.049,0,0,0,2.721-.377.4.4,0,0,0,.084-.028l.014-.014c.23-.2.237-.741.168-1.28-.063-.588-.216-1.182-.231-1.336a2.62,2.62,0,0,0-2.119-2.287,2.406,2.406,0,0,0-.349-.07c-.077-.021-.154-.049-.238-.077a61.114,61.114,0,0,0-9-1.63,7.574,7.574,0,0,0-3.315.168,6.863,6.863,0,0,0-2.05.958,2.794,2.794,0,0,0-1.518,2.777" transform="translate(-24.301 -38.245)" fill="#fff"/>
            <path id="Trazado_817078" data-name="Trazado 817078" d="M127.066,173a2.264,2.264,0,0,0,.322.595c.063.077.126.147.189.21a2.926,2.926,0,0,0,2.329.608h.007c.091-.028.182-.063.287-.1.028-.014.063-.028.1-.043,2.014-.853,6.281-3.979,9.2-6.211a.076.076,0,0,0,.028-.014c1.742-1.343,3-2.35,3-2.35l-.258-.4-1.035-1.518s-6.484,3.064-9.547,4.134a19.873,19.873,0,0,0-3.567,1.455,2.686,2.686,0,0,0-1.049,3.63" transform="translate(-28.788 -37.158)" fill="#35aad3"/>
            <path id="Trazado_817079" data-name="Trazado 817079" d="M116.588,175.1a67.6,67.6,0,0,0,8.554.825,8.047,8.047,0,0,0,2.721-.377.387.387,0,0,0,.084-.028l.014-.014c2.015-.854,6.281-3.98,9.2-6.211-.42.252-5.945,3.462-9.03,4.931a10.357,10.357,0,0,1-1.741.707,6.322,6.322,0,0,1-1.147.105h-.174a8.291,8.291,0,0,1-6.95-3.965,14.63,14.63,0,0,0-1.361-1.869s-.105,3.449-.168,5.9" transform="translate(-26.451 -38.388)" fill="#2496b5"/>
            <path id="Trazado_817080" data-name="Trazado 817080" d="M128.579,170.532s-.5.363-1.977,0,.077,1.442.077,1.442l2.322-.146.2-.6Z" transform="translate(-28.579 -38.679)" fill="#fff"/>
            <path id="Trazado_817081" data-name="Trazado 817081" d="M97.893,186.558a8.792,8.792,0,0,1,.394,5.07c-.747,3.361.1,3.586.1,3.586a43.215,43.215,0,0,0,8.343,4.073c2.715.844,5.029.7,4.964-2.3l0-.042c-.005-.182-.009-.356-.014-.526-.128-6.737,1.277-7.08,1.623-14.623.358-7.739.281-12.321-2.2-13.57-2.7-1.36-6.415-2.295-11.684-1.049-3.958.932-5.261,1.982-5.229,4.911a23.042,23.042,0,0,0,.426,3.606,65.061,65.061,0,0,0,3.273,10.859" transform="translate(-21.37 -37.797)" fill="#35aad3"/>
            <path id="Trazado_817082" data-name="Trazado 817082" d="M97.893,188a8.792,8.792,0,0,1,.394,5.07c-.747,3.361.1,3.586.1,3.586a43.218,43.218,0,0,0,8.343,4.073l3.539-.336,1.417-1.113.006-.888c-.005-.182-.009-.356-.014-.526a26.2,26.2,0,0,1-5.345-.139,22.17,22.17,0,0,1-5.241-1.313,2.043,2.043,0,0,1-1.289-2.271,29.428,29.428,0,0,0,.49-4.7,25.006,25.006,0,0,0-1.259-5.8,11.7,11.7,0,0,1-.472-4.287,38.264,38.264,0,0,0,0-4.886l-2.806-1.52-1.563.582a23.041,23.041,0,0,0,.426,3.606A65.057,65.057,0,0,0,97.893,188" transform="translate(-21.37 -39.239)" fill="#2496b5"/>
            <path id="Trazado_817083" data-name="Trazado 817083" d="M111.942,154.074c-.518.209-.3,1.964-.4,2.528s-.5,2.768-1.662,3.1-1.871.425-1.871.618c-.008.085.023.487.054.889.015.17.031.34.039.479,0,.039.008.077.008.108a.376.376,0,0,1,.008.093,2.213,2.213,0,0,1-.1.819l-.758.5a.562.562,0,0,1-.394.2l-.8.062a.606.606,0,0,1-.17-.015l-.448-.131c-.062-.271-.108-.479-.116-.487-.015-.023-1.415-.935-2.227-1.469a20.334,20.334,0,0,0-.178-2.049c-.054-.209-.649-1.361-1.268-2.729-.054-.116-.108-.232-.155-.348-.139-.309-.271-.626-.4-.943a.861.861,0,0,1-.054-.124,9.769,9.769,0,0,1-.8-2.969c0-2.026.07-4.144,1.322-5.188,1.237-1.036,9.1-4.762,9.363,1.345.008.039.008.07.015.108a28.922,28.922,0,0,0,1.361,4.105.968.968,0,0,1-.371,1.492" transform="translate(-22.745 -32.885)" fill="#feaf84"/>
            <path id="Trazado_817084" data-name="Trazado 817084" d="M108.252,165.288l-.077.379a.557.557,0,0,1-.564.448l-1.345-.054a.428.428,0,0,1-.131-.023l-.448-.131c-.062-.271-.108-.479-.116-.487-.015-.023-1.415-.936-2.227-1.469a20.331,20.331,0,0,0-.178-2.049c-.054-.209-.649-1.361-1.268-2.729-.054-.116-.108-.232-.155-.348-.139-.309-.271-.626-.4-.943a.605.605,0,0,1-.039-.263l.054-.6a.545.545,0,0,1,.487-.5c.665-.077,1.855-.209,1.917-.2a8.777,8.777,0,0,1,.812,1.477c0,.062-.332,1.082-.425,1.361a.735.735,0,0,0-.031.139c-.008.309-.054,1.577-.015,2.745a2.318,2.318,0,0,0,1.2,1.979s.039.023.1.054a20.187,20.187,0,0,0,2.853,1.222" transform="translate(-22.982 -35.463)" fill="#f29d77"/>
            <path id="Trazado_817085" data-name="Trazado 817085" d="M111.885,154.2c1.685,1.531-.139,4.848-.68,5.319s-4.407,1.647-6.626-.487a4.226,4.226,0,0,1-.951-1.353.024.024,0,0,0-.008-.015,7.646,7.646,0,0,1-.518-3.038l-.634.155a17.116,17.116,0,0,0,.108,3.193.551.551,0,0,1-.928.394c-1.005-.982-2.528-3.139-3.046-7.468-.8-6.657,5.876-7.113,7.376-6.958a8.877,8.877,0,0,0,3.425-.232c3.75-2.165,3.4,1.693,2.868,3.147-.178.495-.58,1.121-.665,1.345a12.631,12.631,0,0,0,.093,1.662.887.887,0,0,1-.4.688s-.379-1.245-.425-1.423c-.039-.131-.193-.688-.263-.936a.281.281,0,0,0-.155-.17,3.56,3.56,0,0,0-.464-.131,17.281,17.281,0,0,0-1.971-.162.9.9,0,0,0-.951.858c-.093,2.08-1.16,2.459-1.647,2.52a.3.3,0,0,0-.263.263c-.325,2.536.649,3.958,1.067,4.028.433.077,1.755-1.059,1.755-1.059s2.227-1.67,3.9-.139" transform="translate(-22.356 -32.459)" fill="#0b0b3a"/>
            <path id="Trazado_817086" data-name="Trazado 817086" d="M104.132,155.536s-.1-1.138-.975-.98c-1.037.189-1.547,2.6.046,3.191a.551.551,0,0,0,.728-.513,7.779,7.779,0,0,1,.2-1.7" transform="translate(-23.184 -35.062)" fill="#f29d77"/>
            <path id="Trazado_817087" data-name="Trazado 817087" d="M111.016,170.977s4.105,13.458,3.284,19.9l-1.512,2.752-1.654-3s1.344-12.889-1.229-19.428Z" transform="translate(-24.935 -38.791)" fill="#16405a"/>
            <path id="Trazado_817088" data-name="Trazado 817088" d="M111.016,169.308l-.022.176a3.481,3.481,0,0,1-.263.969l-1.111.227-.968-.721,1.11-1.291.172.044a2.448,2.448,0,0,1,1.065.581Z" transform="translate(-24.651 -38.267)" fill="#103649"/>
            <path id="Trazado_817089" data-name="Trazado 817089" d="M103.664,165.5s-.278.332-.809,1.13a9.6,9.6,0,0,1,1.408.677c.58.354,3.365,2.322,3.365,2.322l.819-1.682a28.2,28.2,0,0,0-4.783-2.447" transform="translate(-23.335 -37.549)" fill="#2496b5"/>
            <path id="Trazado_817090" data-name="Trazado 817090" d="M110.088,168a2.328,2.328,0,0,1,1.274,1.061,3.773,3.773,0,0,0,.074-2.237,2.138,2.138,0,0,0-1.158-1.1Z" transform="translate(-24.976 -37.598)" fill="#2496b5"/>
            <path id="Trazado_817091" data-name="Trazado 817091" d="M115,283.742a4.845,4.845,0,0,1,.337,1.639c-.048.651-2.121.7-2.362.361a18.328,18.328,0,0,1-.361-3.326" transform="translate(-25.549 -64.073)" fill="#feaf84"/>
            <path id="Trazado_817092" data-name="Trazado 817092" d="M112.372,287.012a13.839,13.839,0,0,0,.189,1.784h2.389l.117-.4a3.748,3.748,0,0,0,1.382.4h2.016c1.476,0,2.314-.188,2.351-.448.155-1.085-1.607-1.036-2.067-1.036-1.318,0-2.745-.617-3.056-1.286-.226-.486-.126-.608-.4-.517a.682.682,0,0,0-.409.353,1.211,1.211,0,0,1-1.245.68,1.443,1.443,0,0,1-.807-.39.871.871,0,0,0-.462.861" transform="translate(-25.494 -64.768)" fill="#3a3a3a"/>
            <path id="Trazado_817093" data-name="Trazado 817093" d="M84.743,280.8a19.555,19.555,0,0,1-.728,2.335c-.286.587-2.229-.136-2.328-.539a18.3,18.3,0,0,1,.9-3.223" transform="translate(-18.531 -63.383)" fill="#feaf84"/>
            <path id="Trazado_817094" data-name="Trazado 817094" d="M80.574,283.784c-.251.63-.624,1.852-.624,1.852l1.811,1.079.356-.267a3.523,3.523,0,0,0,.952.995,7.781,7.781,0,0,0,1.792.743c1.654.377,2.932.195,3.062-.032.547-.951-1.645-1.474-2.072-1.643a2.956,2.956,0,0,1-1.826-2.411c-.029-.535.108-.612-.179-.629a.684.684,0,0,0-.511.176,1.211,1.211,0,0,1-1.409.17,1.441,1.441,0,0,1-.605-.66.871.871,0,0,0-.748.628" transform="translate(-18.139 -64.241)" fill="#3a3a3a"/>
            <path id="Trazado_817095" data-name="Trazado 817095" d="M96.226,217.026s-3.246-7.772,2.416-13.414a31.3,31.3,0,0,0,8.7,2.423,19.132,19.132,0,0,0,4.592-.11,71,71,0,0,1,.806,14.974Z" transform="translate(-21.621 -46.195)" fill="#243a6c"/>
            <path id="Trazado_817096" data-name="Trazado 817096" d="M111.6,275.7c.1.007.2.007.287.007a16.4,16.4,0,0,0,3.161-.217v-.581c-.112-8.9.965-23.438,1.175-28.034a5.136,5.136,0,0,0-.028-.881c-.35-3.364-3.826-2.923-5.288.168a12.339,12.339,0,0,0-.825,2.378,21.746,21.746,0,0,0-.539,3.358c-.678,7.679,1.462,18.066,2.057,23.8" transform="translate(-24.824 -55.278)" fill="#243a6c"/>
            <path id="Trazado_817097" data-name="Trazado 817097" d="M104.409,222.9c.014.091.035.189.056.287.769,4.05,3.266,15,4.456,18.549v.007a2.138,2.138,0,0,0,1.532,1.119c1.749.475,4.358-.175,4.582-3.665a8.534,8.534,0,0,0-.014-1.259c-.148-1.819-.276-9.587-.244-14.75a21.142,21.142,0,0,0-.736-5.246c-.118-1.511-.391-3.714-1.188-3.994-3.98-1.378-9.485,3.287-8.443,8.953" transform="translate(-23.659 -48.484)" fill="#243a6c"/>
            <path id="Trazado_817098" data-name="Trazado 817098" d="M108.436,245.256c-.679,7.679,1.462,18.066,2.057,23.8.1.007.2.007.287.007,0,0-.5-9.085-1.308-15.381a24.954,24.954,0,0,1,1.035-10.666c.161-.489.273-.755.273-.755l-.98-2.742c-1.091-3.567-1.119-11.891-1.119-11.891a42.382,42.382,0,0,0,3.028-13.241l-2.273.315-4.071,4.882-.846,3.756c.769,4.05,3.266,15,4.456,18.549v.008a21.737,21.737,0,0,0-.539,3.357" transform="translate(-23.713 -48.64)" fill="#1c3059"/>
            <path id="Trazado_817099" data-name="Trazado 817099" d="M109.251,246.442a19.535,19.535,0,0,1,.258,6.087c-.424,3.007,1.441-2.646,1.441-2.646l-.991-2.04Z" transform="translate(-24.786 -55.912)" fill="#1c3059"/>
            <path id="Trazado_817100" data-name="Trazado 817100" d="M91.372,246.211c2.694-2.534,6.442-1.335,4.691,2.6-1.872,4.206-7.66,15.882-10.8,24.2l-.216.541a17.055,17.055,0,0,1-3.285-1.064c1.494-5.4,2.58-14.713,5.683-21.2a17.563,17.563,0,0,1,3.925-5.079" transform="translate(-18.55 -55.557)" fill="#243a6c"/>
            <path id="Trazado_817101" data-name="Trazado 817101" d="M109.1,213.421c.523-6.257-7.276-2.1-11.016-.036a5.327,5.327,0,0,0-2.362,4.248c-.212,1.638-2.233,18.5-2.639,21.576-.915,6.935,5.143,3.143,5.715,1.221,1.444-4.851,10.017-23.6,10.3-27.008" transform="translate(-21.096 -47.669)" fill="#243a6c"/>
            <path id="Trazado_817102" data-name="Trazado 817102" d="M92.91,242.188a16.794,16.794,0,0,1-3.035,7.41s4.561-2.106,4.783-2.416a17.071,17.071,0,0,0,.93-3.865c-.088-.341-2.678-1.13-2.678-1.13" transform="translate(-20.39 -54.947)" fill="#243a6c"/>
            <path id="Trazado_817103" data-name="Trazado 817103" d="M146.887,121.694l-5.311,18.632L75.52,211.484l-.611.657-6.348,6.667L56.385,207.5l6.758-7.107,1.314-1.423L129.4,129.015Z" transform="translate(-12.792 -27.609)" fill="#ffc25b"/>
            <rect id="Rectángulo_376649" data-name="Rectángulo 376649" width="5.098" height="16.619" transform="translate(43.589 179.892) rotate(-47.145)" fill="#fe7f9a"/>
            <rect id="Rectángulo_376650" data-name="Rectángulo 376650" width="5.098" height="16.619" transform="matrix(0.681, -0.732, 0.732, 0.681, 47.062, 176.149)" fill="#ffe7c5"/>
            <path id="Trazado_817104" data-name="Trazado 817104" d="M150.825,129.015,163,140.326l5.311-18.632Z" transform="translate(-34.219 -27.609)" fill="#ffe7c5"/>
            <path id="Trazado_817105" data-name="Trazado 817105" d="M165.35,124.314l4.421,3.822,1.837-6.442Z" transform="translate(-37.514 -27.609)" fill="#ffc25b"/>
            <g id="Grupo_1072864" data-name="Grupo 1072864" transform="translate(52.393 94.085)" style="mix-blend-mode: multiply;isolation: isolate">
              <g id="Grupo_1072863" data-name="Grupo 1072863">
                <g id="Grupo_1072862" data-name="Grupo 1072862" clip-path="url(#clip-path-12)">
                  <path id="Trazado_817106" data-name="Trazado 817106" d="M149.469,121.694,141.659,138,67.768,215.673l3.375,3.136,73.015-78.482Z" transform="translate(-67.767 -121.694)" fill="#ffc25b"/>
                </g>
              </g>
            </g>
            <g id="Grupo_1072867" data-name="Grupo 1072867" transform="translate(69.608 148.766)" opacity="0.67" style="mix-blend-mode: multiply;isolation: isolate">
              <g id="Grupo_1072866" data-name="Grupo 1072866">
                <g id="Grupo_1072865" data-name="Grupo 1072865" clip-path="url(#clip-path-13)">
                  <path id="Trazado_817107" data-name="Trazado 817107" d="M102.388,204.5l-.039.441-.611.657a1.957,1.957,0,0,1-.943-.588,5.972,5.972,0,0,1-.6-.99l-.276.323s-6.908-5.373-9.881-10.566l1.251-1.354,1.136.448s3.324,3.348,3.541,3.657,2.567,3.866,2.567,3.866Z" transform="translate(-90.035 -192.422)" fill="#bec4cc"/>
                </g>
              </g>
            </g>
            <path id="Trazado_817108" data-name="Trazado 817108" d="M101.964,205.694l2.175-1.809s.641,1.061,1.111,1.207a3.379,3.379,0,0,0,.575-.067,3.859,3.859,0,0,1,1.757.544c.512.235,1.187.448,1.215.653s-.329.529-.687.5a.985.985,0,0,1-.176-.036.771.771,0,0,1-.041.216c-.148.456-2.283,3.437-4.405.195a6.112,6.112,0,0,0-1.523-1.4" transform="translate(-23.133 -46.257)" fill="#ffbc9f"/>
            <path id="Trazado_817109" data-name="Trazado 817109" d="M98.054,176.624a61.95,61.95,0,0,1-2.93,8.667,2.064,2.064,0,0,1-.093.186c-.008.015-.015.023-.023.039a2.538,2.538,0,0,1-.108.325,2.64,2.64,0,0,1-2.582,1.77c-.077,0-.286.008-.549.023a9.957,9.957,0,0,1-1.075,0c-.448-.031-.843-.116-.974-.34a.008.008,0,0,1-.008-.008,1.358,1.358,0,0,1-.054-.224.586.586,0,0,1-.023-.124.664.664,0,0,1-.023-.131c-.015-.124-.023-.247-.031-.371a1.49,1.49,0,0,1-.008-.186,12.7,12.7,0,0,1,.147-1.809c.232-2.489,2.69-10.283,3.525-13.53a2.243,2.243,0,0,1,.765-1.2,1.98,1.98,0,0,1,1.167-.464c.008,0,.008,0,.015-.008a1.482,1.482,0,0,1,.186,0,2.88,2.88,0,0,1,2.343,1.917,6.675,6.675,0,0,1,.642,2.157,7.638,7.638,0,0,1-.309,3.309" transform="translate(-20.322 -38.396)" fill="#35aad3"/>
            <path id="Trazado_817110" data-name="Trazado 817110" d="M101.8,201.366l-1.361,1.229-.008.008-.356.309s-2.76-2.4-4.909-4.422a24.453,24.453,0,0,1-5.273-6.51c-.062-.116-.124-.247-.178-.363V191.6a1.361,1.361,0,0,1-.054-.224.586.586,0,0,1-.023-.124.666.666,0,0,1-.023-.131c-.015-.124-.023-.247-.031-.371a1.489,1.489,0,0,1-.008-.185,2.263,2.263,0,0,1,.5-1.454c.031-.039.07-.077.1-.116a2.275,2.275,0,0,1,.541-.394,2.236,2.236,0,0,1,.4-.17,3.829,3.829,0,0,1,3.077.417c.085.085.178.178.263.278.186.2.379.425.572.665a11.156,11.156,0,0,1,1.484,2.482,89.5,89.5,0,0,0,5.28,9.092" transform="translate(-20.322 -42.712)" fill="#35aad3"/>
            <path id="Trazado_817111" data-name="Trazado 817111" d="M147.289,164.713s3.314-2.307,3.463-4.071c.164-1.947-1.205-2.884-2.107-1.809-1.418,1.691-1.036,4.743-1.036,4.743Z" transform="translate(-33.416 -35.933)" fill="#ffbc9f"/>
            <path id="Trazado_817112" data-name="Trazado 817112" d="M100.435,198.28l-.008.008-.356.309s-2.76-2.4-4.909-4.422a24.453,24.453,0,0,1-5.273-6.51c-.062-.116-.124-.247-.178-.363v-.015a1.358,1.358,0,0,1-.054-.224.586.586,0,0,1-.023-.124.664.664,0,0,1-.023-.131c-.015-.124-.023-.247-.031-.371a1.49,1.49,0,0,1-.008-.186,12.7,12.7,0,0,1,.147-1.809c.232-2.489,2.69-10.283,3.525-13.53a2.243,2.243,0,0,1,.765-1.2,1.98,1.98,0,0,1,1.167-.464c.008,0,.008,0,.015-.008a1.482,1.482,0,0,1,.186,0,21.543,21.543,0,0,0-2.08,5.9c-1.1,4.507-1.871,7.229-2.18,8.976a6.1,6.1,0,0,0-.139,1.879,5.818,5.818,0,0,0,.789,1.639c1.894,3.139,6.7,9.3,8.667,10.646" transform="translate(-20.322 -38.396)" fill="#2496b5"/>
          </g>
        </g>
      </g>
    </g>
  </g>
</svg>
